<svg width="612px" height="101px" viewBox="0 0 612 101" version="1.1" xmlns="http://www.w3.org/2000/svg" xmlns:xlink="http://www.w3.org/1999/xlink">
  <g id="Page-1" stroke="none" stroke-width="1" fill="none" fill-rule="evenodd">
    <g id="Group" fill="#d2d2d2" fill-rule="nonzero">
      <path d="M175.788326,34.8616554 C190.028414,34.8616554 203.759928,44.4811579 203.759928,67.6981524 C203.759928,91.7107452 188.357383,100.823958 171.792383,100.823958 C162.492734,100.823958 153.846966,97.9308744 147.453457,94.2421932 L147.453457,0.0723270855 L154.573501,0.0723270855 L154.573501,42.962289 C159.877207,38.2610285 167.287866,34.8616554 175.788326,34.8616554 Z M171.356462,94.5315012 C184.434094,94.5315012 196.639883,86.8648302 196.639883,67.8428064 C196.56723,50.9905955 187.194927,41.3710931 175.134445,41.3710931 C166.997251,41.3710931 159.586593,45.7830454 154.573501,51.2799041 L154.573501,90.3365304 C160.458435,93.301941 166.198063,94.5315012 171.356462,94.5315012 Z M216.256331,0 L223.085761,0 L223.085761,99.7390513 L216.256331,99.7390513 L216.256331,0 Z M283.824096,80.1384113 L283.824096,35.8742346 L290.944139,35.8742346 L290.944139,99.7390513 L283.824096,99.7390513 L283.824096,87.3711198 C278.229775,95.2547724 269.22074,100.679303 259.485169,100.679303 C249.313678,100.679303 239.650761,94.9654638 239.650761,75.5094779 L239.650761,35.8742346 L246.770806,35.8742346 L246.770806,74.7862068 C246.770806,89.9748948 254.254117,94.0975386 261.737428,94.0975386 C270.165235,94.0975386 277.866508,88.8899886 283.824096,80.1384113 Z M336.061969,35.0786367 C353.280851,35.5125992 365.05072,49.2547455 362.798461,69.4340027 L311.359776,69.4340027 C311.287122,81.2956446 319.71493,93.8805576 336.570544,94.4591742 C344.053855,94.7484828 351.028592,92.5063428 356.622912,89.5409322 L359.093132,95.4717534 C353.498811,98.509491 345.506926,101.330248 336.207276,100.968612 C314.701837,100.317668 303.658504,83.465457 304.385039,65.5283399 C305.111574,45.4214099 320.078197,34.50002 336.061969,35.0786367 Z M311.65039,63.5755085 L356.186992,63.5755085 C356.477606,52.4371373 348.70368,41.8773827 335.480741,41.4434202 C322.62107,41.0094577 312.522232,50.5566329 311.65039,63.5755085 Z M409.514668,34.9339825 C422.374339,34.9339825 429.930304,44.5534849 429.85765,58.8019211 L429.85765,99.7390513 L422.81026,99.7390513 L422.81026,60.3207899 C422.81026,46.5063163 415.690216,41.5880744 407.988944,41.5157473 C398.689295,41.4434202 390.334141,48.6761288 385.97493,55.9088375 L385.97493,99.7390513 L378.854887,99.7390513 L378.854887,0.0723270855 L385.97493,0.0723270855 L385.97493,48.3868205 C391.278637,40.430841 399.779097,34.9339825 409.514668,34.9339825 Z M472.359954,34.9339825 C488.852301,34.9339825 503.237695,47.0849329 503.237695,67.7704794 C503.237695,88.8899886 488.852301,100.75163 472.359954,100.75163 C453.905962,100.75163 441.482212,85.996905 441.482212,67.7704794 C441.482212,48.3868205 455.213726,34.9339825 472.359954,34.9339825 Z M472.359954,94.0975386 C487.253923,94.0975386 496.117652,81.8019342 496.117652,67.6981524 C496.117652,53.5220435 487.326577,41.4434202 472.359954,41.4434202 C457.030063,41.4434202 448.67491,53.5220435 448.67491,67.6981524 C448.67491,81.8019342 456.957409,94.0975386 472.359954,94.0975386 Z M539.927716,65.5283399 C555.330261,71.6038151 558.672326,78.474888 558.672326,84.1887282 C558.672326,94.2421932 549.300023,100.534649 536.803618,100.534649 C529.756226,100.534649 522.854145,98.509491 516.460634,94.7484828 L519.512081,88.6730076 C524.815788,92.2893618 530.846031,94.0975386 536.585656,94.0975386 C543.26978,94.0975386 551.624934,91.3491096 551.552278,84.6226907 C551.552278,78.9088506 545.376734,74.4245712 535.568507,70.5912359 C524.670481,66.2516106 515.152873,62.2736208 515.152873,52.0755017 C515.152873,41.8773827 524.743132,35.0786367 537.384843,35.0786367 C543.996317,35.0786367 550.026555,37.031468 555.184955,39.7075702 L552.496776,45.2767558 C548.428181,43.1792703 543.342431,41.5157473 537.602805,41.5157473 C526.995392,41.5157473 522.20026,46.6509704 522.20026,52.0755017 C522.20026,58.9465751 530.046839,61.4780231 539.927716,65.5283399 Z M609.965702,91.6384177 L612,97.8585474 C607.713442,99.4497432 602.845659,100.75163 597.75991,100.679303 C586.208003,100.679303 577.053662,93.6635761 577.053662,77.2453278 L577.053662,41.8773827 L565.574406,41.8773827 L565.574406,35.8742346 L577.053662,35.8742346 L577.053662,14.4654172 L584.173705,14.4654172 L584.173705,35.9465617 L605.388532,35.9465617 L605.388532,41.9497098 L584.173705,41.9497098 L584.173705,76.8113652 C584.173705,87.0818112 588.532918,93.8082306 597.905221,94.0975386 C601.901161,94.3145202 606.187719,93.374268 609.965702,91.6384177 Z M0,0.00314465585 L28.0980697,0.00314465585 L28.0980697,28.1058863 L0,28.1058863 L0,0.00314465585 Z M36.2413745,0.00314465585 L64.3394441,0.00314465585 L64.3394441,28.1058863 L36.2413745,28.1058863 L36.2413745,0.00314465585 Z M72.556112,0.00314465585 L100.654182,0.00314465585 L100.654182,28.1058863 L72.556112,28.1058863 L72.556112,0.00314465585 Z M0,36.3972957 L28.0980697,36.3972957 L28.0980697,64.5000374 L0,64.5000374 L0,36.3972957 Z M36.2413745,36.3972957 L64.3394441,36.3972957 L64.3394441,64.5000374 L36.2413745,64.5000374 L36.2413745,36.3972957 Z M72.556112,36.3972957 L100.654182,36.3972957 L100.654182,64.5000374 L72.556112,64.5000374 L72.556112,36.3972957 Z M0,72.791447 L28.0980697,72.791447 L28.0980697,100.894188 L0,100.894188 L0,72.791447 Z M36.2413745,72.791447 L64.3394441,72.791447 L64.3394441,100.894188 L36.2413745,100.894188 L36.2413745,72.791447 Z M72.556112,72.791447 L100.654182,72.791447 L100.654182,100.894188 L72.556112,100.894188 L72.556112,72.791447 Z" id="bluehost"></path>
    </g>
  </g>
</svg>
