<svg width="713px" height="101px" viewBox="0 0 713 101" version="1.1" xmlns="http://www.w3.org/2000/svg" xmlns:xlink="http://www.w3.org/1999/xlink">
  <g id="Page-1" stroke="none" stroke-width="1" fill="none" fill-rule="evenodd">
    <g id="Group" fill="#d2d2d2" fill-rule="nonzero">
      <g transform="translate(0.000000, 1.000000)">
        <path d="M130.656708,12.2533253 L157.043515,12.2533253 C182.735932,12.2533253 204.262011,23.3672249 204.262011,52.6245656 C204.262011,78.5755212 183.180341,92.5234653 159.376664,92.5234653 L130.656708,92.5234653 L130.656708,12.2533253 Z M148.238654,76.1582481 L157.376822,76.1582481 C173.736642,76.1582481 186.013451,69.9344643 186.013451,51.6798842 C186.013451,35.9259315 173.486662,28.562973 158.626723,28.562973 L148.183103,28.562973 L148.238654,76.1582481 Z" id="Shape"></path>
        <path d="M213.400179,37.4263079 L230.315511,37.4263079 L230.315511,46.2340734 L230.537716,46.2340734 C234.148542,39.5379488 238.870392,36.0370705 246.314249,36.0370705 C248.181945,35.9879457 250.048379,36.1746506 251.869366,36.5927654 L251.869366,52.1244402 C249.528398,51.4037808 247.09678,51.0202069 244.647714,50.9852654 C231.787618,50.9852654 230.204409,58.4593629 230.204409,69.4621236 L230.204409,92.4678958 L213.400179,92.4678958 L213.400179,37.4263079 Z" id="Path"></path>
        <path d="M309.281503,82.9932963 C303.610695,89.9192753 295.121762,93.9201881 286.172215,93.8851492 C269.256883,93.8851492 255.619071,82.5487403 255.619071,64.9609942 C255.619071,47.3732481 269.145781,36.0370705 286.172215,36.0370705 C301.948749,36.0370705 311.864633,47.3732481 311.864633,64.9609942 L311.864633,70.295666 L272.728832,70.295666 C273.713666,76.5407219 279.159022,81.0978172 285.477826,80.9650097 C290.371814,80.9246636 294.911065,78.4031885 297.53243,74.2688851 L309.281503,82.9932963 Z M294.949301,58.7372104 C295.018041,55.9630271 293.950451,53.2812424 291.994104,51.3137565 C290.037756,49.3462705 287.362604,48.264003 284.589007,48.3179295 C278.433322,47.9510888 273.119434,52.5868221 272.645505,58.7372104 L294.949301,58.7372104 Z" id="Shape"></path>
        <path d="M354.61126,85.6050627 L354.389055,85.6050627 C350.44398,91.2128227 343.870833,94.3689741 337.029314,93.9404875 C326.780123,93.9404875 317.586404,88.0501207 317.586404,76.936221 C317.586404,57.8758832 340.584589,57.4868967 354.666811,57.4868967 C354.613458,54.7155642 353.422283,52.0883436 351.373148,50.2224903 C349.324013,48.356637 346.597551,47.4166265 343.834333,47.6233108 C338.454722,47.6353856 333.361634,50.0503055 329.946539,54.2082963 L320.919474,44.9004054 C327.566624,39.0211837 336.185858,35.8660391 345.056458,36.0648552 C364.777125,36.0648552 370.054486,46.1507191 370.054486,64.5164382 L370.054486,92.5234653 L354.500158,92.5234653 L354.61126,85.6050627 Z M350.444922,68.3785183 C345.250888,68.3785183 333.77957,68.8230743 333.77957,76.3249566 C333.77957,80.4093147 338.057011,82.3264624 341.778939,82.3264624 C348.44508,82.3264624 354.639036,78.825584 354.639036,72.0183205 L354.639036,68.4618726 L350.472698,68.4618726 L350.444922,68.3785183 Z" id="Shape"></path>
        <path d="M380.775862,37.4263079 L397.02458,37.4263079 L397.02458,44.9004054 L397.246785,44.9004054 C400.537707,39.2240491 406.690139,35.8262731 413.245523,36.0648552 C420.911585,36.0648552 427.133316,39.2323166 430.160855,45.9284411 C433.38693,39.3991147 440.262196,35.4926753 447.520596,36.0648552 C462.408311,36.0648552 466.963507,46.6230598 466.963507,59.9875241 L466.963507,92.5234653 L450.048175,92.5234653 L450.048175,60.4320801 C450.048175,55.3196863 448.131659,51.0130502 442.604318,51.0130502 C434.827153,51.0130502 432.355126,56.57 432.355126,63.3772635 L432.355126,92.5234653 L415.384243,92.5234653 L415.384243,63.3772635 C415.384243,59.2929054 415.606448,51.0130502 407.829283,51.0130502 C399.024423,51.0130502 397.691194,57.9314527 397.691194,65.0721332 L397.691194,92.5234653 L380.775862,92.5234653 L380.775862,37.4263079 Z" id="Path"></path>
        <polygon id="Path" points="477.629332 12.2533253 495.211278 12.2533253 495.211278 42.1775 529.375249 42.1775 529.375249 12.2533253 546.957195 12.2533253 546.957195 92.5234653 529.375249 92.5234653 529.375249 57.8480985 495.211278 57.8480985 495.211278 92.5234653 477.629332 92.5234653"></polygon>
        <path d="M584.981973,36.0648552 C601.897305,36.0648552 615.535118,47.4010328 615.535118,64.988779 C615.535118,82.5765251 602.008407,93.9127027 584.981973,93.9127027 C567.955539,93.9127027 554.428828,82.5765251 554.428828,64.988779 C554.428828,47.4010328 567.955539,36.0648552 584.981973,36.0648552 M584.981973,78.936723 C593.314649,78.936723 598.508683,73.3797732 598.508683,65.0443485 C598.508683,56.7089237 593.425751,51.1519739 584.981973,51.1519739 C576.538195,51.1519739 571.455262,56.7089237 571.455262,65.0443485 C571.455262,73.3797732 576.538195,78.936723 584.981973,78.936723" id="Shape"></path>
        <path d="M654.198734,53.6526014 C651.849967,50.6393361 648.212531,48.9179416 644.393952,49.0125483 C641.616393,49.0125483 638.199996,50.262862 638.199996,53.5414624 C638.199996,61.7101786 666.725523,54.7917761 666.725523,75.7692616 C666.725523,89.8283446 653.198813,93.9127027 641.477515,93.9127027 C633.811454,93.9127027 625.3399,91.995555 619.951436,86.4386052 L630.200627,74.9912886 C632.986139,78.7957486 637.430092,81.0287964 642.14413,80.9927944 C645.97716,80.9927944 649.810191,79.9647587 649.810191,77.0195753 C649.810191,68.1840251 621.284664,75.6581226 621.284664,54.7917761 C621.284664,41.8718678 632.783757,36.203779 644.28285,36.203779 C651.504502,36.203779 659.503871,38.0097876 664.586803,43.4555985 L654.198734,53.6526014 Z" id="Path"></path>
        <path d="M712.027505,51.0408349 L697.13979,51.0408349 L697.13979,69.4065541 C697.13979,75.2969208 697.806404,79.6035569 705.139159,79.6035569 C707.541621,79.772574 709.939902,79.2211745 712.027505,78.0198263 L712.027505,92.1900483 C708.210344,93.4322902 704.207372,94.0056748 700.195105,93.884918 C688.918217,93.884918 680.252234,89.2448649 680.252234,77.2140685 L680.252234,51.0408349 L669.419755,51.0408349 L669.419755,37.4263079 L680.252234,37.4263079 L680.252234,21.2277992 L697.167566,21.2277992 L697.167566,37.5652317 L712.027505,37.5652317 L712.027505,51.0408349 Z" id="Path"></path>
        <path d="M100.43687,74.0188224 C91.9650338,78.7722288 82.3721873,81.1616356 72.6612836,80.9372249 C58.4950977,80.7687484 44.9761448,74.9772986 35.0789553,64.8371489 C25.1817659,54.6969993 19.7172221,41.0389381 19.8876696,26.8681033 C20.1316805,17.3223593 22.9951128,8.02755227 28.1647943,0.000250965251 C11.7597948,9.08828884 1.40813077,26.2021985 0.972495339,44.9559749 C0.802047866,59.1268097 6.2665916,72.784871 16.1637811,82.9250206 C26.0609705,93.0651702 39.5799234,98.85662 53.7461093,99.0250965 C72.6218582,99.4479811 90.3433706,89.9624742 100.464645,74.0188224" id="Path"></path>
      </g>
      <path d="M71.1878988,76 L72.1961773,76 C80.0114394,76 87.706546,74.0857216 94.6023655,70.4261094 C103.054987,55.9853523 103.137022,38.1576562 94.8176536,23.6404816 C86.4982847,9.12330708 71.037368,0.11508545 54.243219,0 C46.4033222,-0.00170605021 38.6921833,1.98369999 31.8370308,5.76897791 C27.5313636,12.706479 25.1716416,20.6649014 25.0031434,28.8170157 C24.7070993,54.5192496 45.3592952,75.6178183 71.1878988,76" id="Path" fill-opacity="0.8"></path>
    </g>
  </g>
</svg>
