<svg width="476px" height="101px" viewBox="0 0 476 101" version="1.1" xmlns="http://www.w3.org/2000/svg" xmlns:xlink="http://www.w3.org/1999/xlink">
  <g id="Page-1" stroke="none" stroke-width="1" fill="none" fill-rule="evenodd">
    <g id="Group" fill="#d2d2d2" fill-rule="nonzero">
      <path d="M123.335508,49.9180538 C123.335508,43.9692702 118.676455,39.0550576 112.593801,39.0550576 C106.640566,39.0550576 101.852094,43.9692702 101.852094,49.9180538 C101.852094,55.8668374 106.511147,60.6517286 112.593801,60.6517286 C118.676455,60.6517286 123.335508,55.8668374 123.335508,49.9180538 L123.335508,49.9180538 Z M141.971724,50.0473752 C141.971724,65.4366197 128.900489,77.7221511 112.723219,77.7221511 C96.4165307,77.7221511 83.4747145,65.4366197 83.4747145,50.0473752 C83.4747145,34.5288092 96.5459489,22.1139565 112.723219,22.1139565 C128.900489,21.9846351 141.971724,34.5288092 141.971724,50.0473752 L141.971724,50.0473752 Z M200.339315,38.7964149 C200.339315,28.4507042 193.091898,19.3982074 182.35019,19.3982074 L167.467102,19.3982074 L167.467102,58.5825864 L182.35019,58.5825864 C193.091898,58.5825864 200.339315,49.1421255 200.339315,38.7964149 L200.339315,38.7964149 Z M220.39913,38.7964149 C220.39913,60.9103713 204.739532,76.0409731 182.738445,76.0409731 L150.901577,76.0409731 C149.348559,76.0409731 148.183796,74.8770807 148.183796,73.4545455 L148.183796,4.39692702 C148.183796,2.97439181 149.348559,1.81049936 150.901577,1.81049936 L182.738445,1.81049936 C204.868951,1.93982074 220.39913,16.6824584 220.39913,38.7964149 L220.39913,38.7964149 Z M251.588907,60.6517286 C257.542142,60.6517286 262.330614,55.737516 262.330614,49.7887324 C262.330614,43.8399488 257.671561,38.9257362 251.588907,38.9257362 C245.635672,38.9257362 240.8472,43.8399488 240.8472,49.7887324 C240.8472,55.8668374 245.635672,60.6517286 251.588907,60.6517286 L251.588907,60.6517286 Z M248.741707,21.9846351 C255.083197,21.9846351 260.130506,24.31242 262.330614,27.5454545 L262.330614,25.993598 C262.330614,24.5710627 263.495378,23.5364917 264.78956,23.5364917 L278.249048,23.5364917 C279.672648,23.5364917 280.707993,24.5710627 280.707993,25.993598 L280.707993,73.5838668 C280.707993,75.006402 279.672648,76.0409731 278.249048,76.0409731 L264.918978,76.0409731 C263.495378,76.0409731 262.460033,75.006402 262.460033,73.5838668 L262.460033,72.0320102 C260.259924,75.2650448 255.083197,77.5928297 248.741707,77.5928297 C235.282219,77.5928297 222.340402,66.8591549 222.340402,49.659411 C222.340402,32.4596671 235.282219,21.9846351 248.741707,21.9846351 L248.741707,21.9846351 Z M312.415443,60.6517286 C318.368679,60.6517286 323.157151,55.737516 323.157151,49.7887324 C323.157151,43.8399488 318.498097,38.9257362 312.415443,38.9257362 C306.462208,38.9257362 301.673736,43.8399488 301.673736,49.7887324 C301.673736,55.8668374 306.462208,60.6517286 312.415443,60.6517286 L312.415443,60.6517286 Z M309.179989,21.9846351 C315.650897,21.9846351 320.698206,24.4417414 323.027732,27.2868118 L323.027732,4.39692702 C323.027732,2.97439181 324.192496,1.93982074 325.486678,1.93982074 L339.075585,1.93982074 C340.499184,1.93982074 341.53453,2.97439181 341.53453,4.39692702 L341.53453,73.7131882 C341.53453,75.1357234 340.499184,76.1702945 339.075585,76.1702945 L325.745514,76.1702945 C324.321914,76.1702945 323.286569,75.1357234 323.286569,73.7131882 L323.286569,72.1613316 C320.568787,75.3943662 315.909734,77.7221511 309.568244,77.7221511 C296.108755,77.7221511 283.166939,66.9884763 283.166939,49.7887324 C283.166939,32.5889885 295.979337,21.9846351 309.179989,21.9846351 L309.179989,21.9846351 Z M373.241979,60.6517286 C379.195215,60.6517286 383.983687,55.737516 383.983687,49.7887324 C383.983687,43.8399488 379.324633,38.9257362 373.241979,38.9257362 C367.288744,38.9257362 362.500272,43.8399488 362.500272,49.7887324 C362.62969,55.8668374 367.288744,60.6517286 373.241979,60.6517286 L373.241979,60.6517286 Z M370.135943,21.9846351 C376.606852,21.9846351 381.65416,24.4417414 383.983687,27.2868118 L383.983687,4.39692702 C383.983687,2.97439181 385.14845,1.93982074 386.442632,1.93982074 L399.902121,1.93982074 C401.325721,1.93982074 402.361066,2.97439181 402.361066,4.39692702 L402.361066,73.7131882 C402.361066,75.1357234 401.325721,76.1702945 399.902121,76.1702945 L386.57205,76.1702945 C385.14845,76.1702945 384.113105,75.1357234 384.113105,73.7131882 L384.113105,72.1613316 C381.395324,75.3943662 376.73627,77.7221511 370.39478,77.7221511 C356.935291,77.7221511 343.993475,66.9884763 343.993475,49.7887324 C343.993475,32.5889885 356.805873,21.9846351 370.135943,21.9846351 L370.135943,21.9846351 Z M447.13975,83.6709347 C443.774878,94.7925736 436.009788,101 423.844481,101 C417.244154,101 410.773246,98.8015365 406.631865,95.1805378 C405.984774,94.5339309 405.59652,93.7580026 405.59652,92.9820743 C405.59652,92.3354673 405.855356,91.5595391 406.502447,90.7836108 L411.549755,83.1536492 C412.326264,82.1190781 413.491028,81.9897567 413.749864,81.9897567 C414.914628,81.9897567 415.4323,82.2483995 416.467645,83.0243278 C418.020663,84.0588988 420.220772,85.3521127 422.679717,85.3521127 C424.750408,85.3521127 427.468189,84.446863 428.503535,81.3431498 L430.185971,76.0409731 L421.903208,76.0409731 C420.220772,76.0409731 419.185427,74.8770807 418.667754,73.4545455 L405.078847,27.8040973 C404.820011,26.6402049 404.690593,25.993598 404.690593,25.6056338 C404.690593,24.5710627 405.467102,23.6658131 406.890701,23.6658131 L422.938554,23.6658131 C424.362153,23.6658131 425.138662,24.9590269 425.526917,26.2522407 L434.45677,59.099872 L435.103861,59.099872 L442.22186,26.2522407 C442.480696,24.9590269 443.386623,23.6658131 444.810223,23.6658131 L461.116911,23.6658131 C462.669929,23.6658131 463.31702,24.5710627 463.31702,25.6056338 C463.31702,25.993598 463.187602,26.6402049 462.928766,27.8040973 L447.13975,83.6709347 L447.13975,83.6709347 Z M64.3208265,65.8245839 C57.8499184,74.7477593 47.2376291,77.7221511 37.7901033,77.7221511 C16.0478521,77.7221511 0,61.5569782 0,39.0550576 C0.129418162,17.4583867 17.4714519,0.258642766 40.1196302,0.258642766 C56.9439913,0.258642766 70.4034802,7.37131882 76.4861338,20.950064 C77.2626427,22.5019206 77.7803154,25.0883483 73.2506797,25.8642766 L61.3442088,27.9334187 C58.6264274,28.4507042 57.0734095,26.6402049 56.5557368,25.8642766 C53.0614464,21.0793854 47.3670473,17.8463508 40.5078847,17.8463508 C28.6014138,17.8463508 20.1892333,26.8988476 20.1892333,38.9257362 C20.1892333,52.2458387 29.7661773,60.0051216 40.2490484,60.0051216 C47.2376291,60.0051216 52.9320283,57.418694 56.685155,52.5044814 L46.2022838,52.5044814 C44.6492659,52.5044814 43.4845024,51.340589 43.4845024,49.9180538 L43.4845024,39.9603073 C43.4845024,38.5377721 44.6492659,37.3738796 46.2022838,37.3738796 L78.1685699,37.3738796 C79.7215878,37.3738796 80.8863513,38.5377721 80.8863513,39.9603073 L80.8863513,73.4545455 C80.8863513,74.8770807 79.7215878,76.0409731 78.1685699,76.0409731 L67.0386079,76.0409731 C65.48559,76.0409731 64.3208265,74.8770807 64.3208265,73.4545455 L64.3208265,65.8245839 L64.3208265,65.8245839 Z M465.646547,0 C459.952148,0 455.293094,4.65556978 455.293094,10.3457106 C455.293094,16.0358515 459.952148,20.6914213 465.646547,20.6914213 C471.340946,20.6914213 476,16.0358515 476,10.3457106 C476,4.65556978 471.340946,0 465.646547,0 Z M465.646547,18.6222791 C461.116911,18.6222791 457.363785,14.871959 457.363785,10.3457106 C457.363785,5.81946223 461.116911,2.06914213 465.646547,2.06914213 C470.176183,2.06914213 473.929309,5.81946223 473.929309,10.3457106 C473.929309,14.871959 470.176183,18.6222791 465.646547,18.6222791 Z" id="Shape"></path>
      <path d="M467.735395,8.04494382 C467.735395,7.50561798 467.597938,7.1011236 467.185567,6.96629213 C466.910653,6.69662921 466.360825,6.42696629 465.948454,6.42696629 L464.024055,6.42696629 L464.024055,9.52808989 L465.948454,9.52808989 C466.498282,9.52808989 466.910653,9.39325843 467.185567,8.98876404 C467.460481,8.71910112 467.735395,8.4494382 467.735395,8.04494382 L467.735395,8.04494382 Z M463.474227,16 L461.412371,16 C461.274914,16 461.274914,16 461.137457,15.8651685 C461.137457,15.7303371 461,15.7303371 461,15.5955056 L461,4.40449438 C461,4.26966292 461,4.26966292 461.137457,4.13483146 C461.274914,4.13483146 461.274914,4 461.412371,4 L465.948454,4 C467.460481,4 468.560137,4.26966292 469.38488,5.07865169 C470.209622,5.88764045 470.621993,6.83146067 470.621993,7.91011236 C470.621993,8.71910112 470.484536,9.39325843 469.934708,9.93258427 C469.38488,10.6067416 468.972509,11.011236 468.285223,11.4157303 L470.896907,15.3258427 C471.034364,15.4606742 471.034364,15.5955056 470.896907,15.8651685 C470.896907,16 470.75945,16 470.621993,16 L468.560137,16 C468.42268,16 468.285223,16 468.010309,15.8651685 C467.872852,15.8651685 467.872852,15.7303371 467.735395,15.5955056 L465.536082,11.9550562 L463.886598,11.9550562 L463.886598,15.4606742 C463.886598,15.5955056 463.886598,15.5955056 463.749141,15.7303371 C463.611684,15.8651685 463.611684,16 463.474227,16 L463.474227,16 Z" id="Shape"></path>
    </g>
  </g>
</svg>
