<?xml version="1.0" encoding="UTF-8"?>
<svg width="707px" height="141px" viewBox="0 0 707 141" version="1.1" xmlns="http://www.w3.org/2000/svg" xmlns:xlink="http://www.w3.org/1999/xlink">
    <!-- Generator: Sketch 52.2 (67145) - http://www.bohemiancoding.com/sketch -->
    <title>logo</title>
    <desc>Created with Sketch.</desc>
    <g id="logo" stroke="none" stroke-width="1" fill="none" fill-rule="evenodd">
        <g id="Page-1" fill="#d2d2d2">
            <polygon id="Fill-1" points="212.68259 42 226 42 226 101 212.68259 101 212.68259 75.969733 190.31741 75.969733 190.31741 101 177 101 177 42 190.31741 42 190.31741 64.559979 212.68259 64.559979"></polygon>
            <g id="Group-14" transform="translate(243.000000, 40.000000)">
                <path d="M14.3463519,31.0834535 C14.3463519,33.9865887 14.6987557,36.6065786 15.4059365,38.9422285 C16.1131172,41.2790732 17.1323593,43.286179 18.4624761,44.9659354 C19.7890333,46.6480813 21.4169729,47.9419477 23.3415488,48.8523135 C25.2637515,49.7662635 27.4695385,50.2226411 29.9600962,50.2226411 C32.3913267,50.2226411 34.5840617,49.7662635 36.5371146,48.8523135 C38.4866079,47.9419477 40.128786,46.6480813 41.4565297,44.9659354 C42.78546,43.286179 43.8058886,41.2790732 44.5130694,38.9422285 C45.2202502,36.6065786 45.5738405,33.9865887 45.5738405,31.0834535 C45.5738405,28.1767342 45.2202502,25.5424078 44.5130694,23.1780849 C43.8058886,20.8149568 42.78546,18.7947092 41.4565297,17.1125633 C40.128786,15.4328069 38.4866079,14.1353564 36.5371146,13.2261852 C34.5840617,12.3146247 32.3913267,11.8594417 29.9600962,11.8594417 C27.4695385,11.8594417 25.2637515,12.3289611 23.3415488,13.2679999 C21.4169729,14.2082334 19.7890333,15.5188257 18.4624761,17.1997769 C17.1323593,18.8795333 16.1131172,20.9009756 15.4059365,23.2641037 C14.6987557,25.6296213 14.3463519,28.2352748 14.3463519,31.0834535 Z M59.234532,31.0834535 C59.234532,36.1513957 58.4834491,40.6100379 56.9872159,44.4522119 C55.4862366,48.29797 53.4347005,51.5165076 50.8337941,54.1066298 C48.2317011,56.7003362 45.1336324,58.6500962 41.541961,59.9594938 C37.9502896,61.2712808 34.0880859,61.9259796 29.9600962,61.9259796 C25.9424552,61.9259796 22.1538173,61.2712808 18.5894364,59.9594938 C15.0250556,58.6500962 11.9127483,56.7003362 9.2548877,54.1066298 C6.59465404,51.5165076 4.50396192,48.29797 2.97569209,44.4522119 C1.4486088,40.6100379 0.683287344,36.1513957 0.683287344,31.0834535 C0.683287344,26.0131219 1.47589934,21.5556744 3.05993678,17.7123057 C4.64278768,13.8665476 6.77975504,10.6336735 9.46727924,8.01368362 C12.1524303,5.3936937 15.2647376,3.42959729 18.801828,2.11900497 C22.3353587,0.807217954 26.0563635,0.151324444 29.9600962,0.151324444 C33.9753641,0.151324444 37.7651886,0.807217954 41.330756,2.11900497 C44.8939503,3.42959729 48.005071,5.3936937 50.6641182,8.01368362 C53.3219787,10.6336735 55.4162305,13.8665476 56.9433138,17.7123057 C58.4715836,21.5556744 59.234532,26.0131219 59.234532,31.0834535 Z" id="Fill-2"></path>
                <path d="M92.5216253,50.5627739 C94.3880604,50.5627739 95.9293822,50.4074621 97.1455908,50.0920598 C98.3617993,49.7802416 99.3383257,49.3537316 100.072797,48.8089457 C100.807268,48.2701334 101.317483,47.629771 101.601067,46.8890534 C101.884651,46.1495305 102.02585,45.3227941 102.02585,44.4112335 C102.02585,42.47581 101.11933,40.8641518 99.3098487,39.5846219 C97.4991811,38.3015078 94.3880604,36.9216226 89.9764865,35.4377979 C88.0519107,34.7568156 86.1285214,33.9718938 84.2051321,33.0902009 C82.2817428,32.208508 80.5565065,31.0974316 79.0294232,29.7581663 C77.5035265,28.4200958 76.2576543,26.7964905 75.296553,24.8861559 C74.3342651,22.9794053 73.8537144,20.6592866 73.8537144,17.9246049 C73.8537144,15.1899232 74.3627421,12.7264398 75.3807977,10.5341545 C76.4000397,8.34067461 77.8416918,6.47693349 79.7093135,4.93695765 C81.5757486,3.39817652 83.8373032,2.21900185 86.4963503,1.3910707 C89.1553974,0.566723667 92.1526098,0.150966033 95.4915472,0.150966033 C99.4510475,0.150966033 102.87423,0.581060137 105.759907,1.43408011 C108.643211,2.28829479 111.01986,3.229723 112.886295,4.25478061 L109.06918,14.7634132 C107.427002,13.9091986 105.602096,13.1541445 103.595649,12.4982509 C101.586828,11.8447469 99.1686498,11.515008 96.3411133,11.515008 C93.1718519,11.515008 90.8948722,11.9594386 89.5089878,12.8411315 C88.1231033,13.7240191 87.4289746,15.0776209 87.4289746,16.8983526 C87.4289746,17.9819508 87.6852683,18.894706 88.194296,19.6330343 C88.7021373,20.3737519 89.4247431,21.0427872 90.3573674,21.6413348 C91.2911782,22.2386877 92.3661879,22.7810842 93.583583,23.2637453 C94.7974184,23.7487959 96.1417738,24.2457935 97.614276,24.7583223 C100.667256,25.8992664 103.326303,27.0234846 105.590231,28.1345611 C107.851785,29.2456375 109.733646,30.5418933 111.233438,32.0221339 C112.730858,33.5023744 113.848583,35.2406714 114.585428,37.2346355 C115.318712,39.2297942 115.687728,41.6490736 115.687728,44.4948629 C115.687728,50.0203774 113.763152,54.306982 109.916374,57.3534819 C106.069595,60.4023712 100.27095,61.9268159 92.5216253,61.9268159 C89.9195323,61.9268159 87.57136,61.7691147 85.4782948,61.4561018 C83.3852296,61.1406995 81.533033,60.7571989 79.9205185,60.302016 C78.3091905,59.846833 76.9221195,59.3629772 75.7616786,58.8504484 C74.6024242,58.3367248 73.6270843,57.8540637 72.8344723,57.3964913 L76.5697157,46.8030346 C78.3210559,47.7731357 80.4853138,48.6404922 83.0613028,49.4074933 C85.6337321,50.1780786 88.788755,50.5627739 92.5216253,50.5627739" id="Fill-4"></path>
                <polygon id="Fill-6" points="174.007359 1.52093523 174.007359 12.8849772 156.272072 12.8849772 156.272072 60.7293622 143.034977 60.7293622 143.034977 12.8849772 125.298504 12.8849772 125.298504 1.52093523"></polygon>
                <polygon id="Fill-8" points="188.709956 60.7307959 201.948237 60.7307959 201.948237 1.52117417 188.709956 1.52117417"></polygon>
                <path d="M261.20334,60.7294817 C257.413516,53.9519154 253.312816,47.260368 248.898869,40.6512553 C244.484922,34.0433372 239.789764,27.8069727 234.813395,21.9397723 L234.813395,60.7294817 L221.744789,60.7294817 L221.744789,1.5210547 L232.52099,1.5210547 C234.386239,3.39913229 236.452013,5.70610927 238.715941,8.44079096 C240.978682,11.1754726 243.281766,14.0953337 245.631125,17.1991795 C247.978111,20.3030253 250.312044,23.5215628 252.63174,26.8524027 C254.950248,30.1844373 257.128745,33.3874437 259.166042,36.4638113 L259.166042,1.5210547 L272.318893,1.5210547 L272.318893,60.7294817 L261.20334,60.7294817" id="Fill-10"></path>
                <path d="M320.793642,11.7739008 C314.630728,11.7739008 310.174065,13.4966666 307.429587,16.9421983 C304.686295,20.3889246 303.315836,25.1008445 303.315836,31.0839314 C303.315836,33.9858719 303.654001,36.6225877 304.332705,38.9857158 C305.012595,41.3476493 306.03065,43.3834281 307.386871,45.0930521 C308.746652,46.8026762 310.442224,48.127605 312.479522,49.0678385 C314.515633,50.0068773 316.889909,50.4763967 319.605911,50.4763967 C321.07604,50.4763967 322.33615,50.4477237 323.38387,50.3915726 C324.429216,50.3354214 325.348788,50.2219243 326.140213,50.0498867 L326.140213,29.4603261 L339.378495,29.4603261 L339.378495,58.7652658 C337.793271,59.3924864 335.249319,60.060327 331.740705,60.7711769 C328.234465,61.4820269 323.905949,61.8404387 318.757531,61.8404387 C314.345957,61.8404387 310.342555,61.1558722 306.75207,59.7903234 C303.158025,58.4211905 300.08962,56.4296159 297.543295,53.8084313 C295.000529,51.1896361 293.033238,47.9699038 291.647353,44.1540133 C290.259096,40.3405123 289.568526,35.9822253 289.568526,31.0839314 C289.568526,26.1270968 290.332661,21.7413317 291.860931,17.9242465 C293.386828,14.1095507 295.47752,10.8742873 298.13894,8.22681914 C300.797987,5.57815628 303.92216,3.57105046 307.515018,2.20430697 C311.106689,0.836368776 314.939229,0.150607621 319.012638,0.150607621 C321.784407,0.150607621 324.28683,0.338176439 326.522281,0.707340545 C328.756545,1.07889406 330.678748,1.50540405 332.291262,1.99045462 C333.904963,2.47311579 335.23508,2.97130812 336.281613,3.48503164 C337.329332,3.99756044 338.075668,4.3977869 338.530115,4.68212689 L334.711814,15.3604077 C332.89996,14.392696 330.821133,13.5540125 328.475334,12.8407731 C326.125975,12.1287284 323.567784,11.7739008 320.793642,11.7739008" id="Fill-11"></path>
                <polygon id="Fill-12" points="357.900935 60.7294817 357.900935 1.5210547 397.613407 1.5210547 397.613407 12.7130591 371.13803 12.7130591 371.13803 24.3315734 394.643485 24.3315734 394.643485 35.2691054 371.13803 35.2691054 371.13803 49.5374773 399.566459 49.5374773 399.566459 60.7294817"></polygon>
                <path d="M433.530477,12.2002913 C432.568189,12.2002913 431.707944,12.2289643 430.942622,12.2851154 C430.18086,12.343656 429.458255,12.4010019 428.778364,12.4559584 L428.778364,28.5175838 L432.513608,28.5175838 C437.489977,28.5175838 441.055544,27.8939473 443.204377,26.6395062 C445.355583,25.3886491 446.429406,23.2513204 446.429406,20.231104 C446.429406,17.3255794 445.340158,15.2635171 443.161662,14.0353595 C440.983165,12.8131754 437.773561,12.2002913 433.530477,12.2002913 M432.767528,0.836249306 C441.593049,0.836249306 448.351609,2.41565043 453.046767,5.57803681 C457.741925,8.73922848 460.091284,13.6518589 460.091284,20.3171228 C460.091284,24.4735045 459.144421,27.8509379 457.248323,30.4422549 C455.354597,33.0323771 452.624357,35.0705453 449.059976,36.5495912 C450.248894,38.0322211 451.492393,39.726314 452.792847,41.6342592 C454.0933,43.5433992 455.381888,45.5373632 456.65505,47.6161514 C457.927026,49.6949396 459.15866,51.8585519 460.346391,54.1069883 C461.532936,56.3590088 462.636423,58.5656305 463.653292,60.7292428 L448.855891,60.7292428 C447.776135,58.7926246 446.68214,56.8285282 445.577467,54.8345641 C444.469234,52.8417948 443.336084,50.9039819 442.16971,49.0235149 C441.009269,47.1430479 439.854761,45.3653256 438.721611,43.6855692 C437.583714,42.0034233 436.447004,40.4801734 435.313854,39.1110405 L428.778364,39.1110405 L428.778364,60.7292428 L415.542456,60.7292428 L415.542456,2.37264102 C418.426947,1.80635045 421.411107,1.40492929 424.493751,1.17912988 C427.576394,0.949746361 430.333925,0.836249306 432.767528,0.836249306" id="Fill-13"></path>
            </g>
            <path d="M0.00118872188,66.4844964 L0.00118872188,0.002380653 L33.4125946,17.8941783 L33.4125946,47.8475544 L77.6425582,47.8689803 L111.596021,66.4844964 L0.00118872188,66.4844964 Z M86.687543,42.3661008 L86.687543,0 L121,17.4466155 L121,62.3838216 L86.687543,42.3661008 Z M86.687543,123.623739 L86.687543,93.9286642 L42.1164162,93.8977157 C42.1580214,94.0953099 7.59949897,74.984618 7.59949897,74.984618 L121,75.5190746 L121,142 L86.687543,123.623739 Z M0,123.623739 L0.00118872188,80.1792028 L33.4125946,99.7231736 L33.4125946,141.069165 L0,123.623739 Z" id="Fill-15"></path>
        </g>
    </g>
</svg>
