<svg id="SvgjsSvg1147" width="288" height="288" xmlns="http://www.w3.org/2000/svg" version="1.1" xmlns:xlink="http://www.w3.org/1999/xlink" xmlns:svgjs="http://svgjs.com/svgjs"><defs id="SvgjsDefs1148"></defs><g id="SvgjsG1149"><svg xmlns="http://www.w3.org/2000/svg" xmlns:svgjs="http://svgjs.com/svgjs" xmlns:xlink="http://www.w3.org/1999/xlink" width="288" height="288"><svg xmlns="http://www.w3.org/2000/svg" width="288" height="288" transform="translate(12.032 12.04) scale(.9167)" viewBox="0 0 437.58 440.94"><g fill="#3f4757" class="color000 svgShape colorfff" data-name="Layer 2"><g class="color000 svgShape" data-name="Main Section" fill="#3f4757"><g class="color000 svgShape" data-name="Migration (New) Section" fill="#3f4757"><g class="color000 svgShape" data-name="Replacement Migration" fill="#3f4757"><circle cx="219.99" cy="219.38" r="217.3" fill="#13aa52" class="colorfed902 svgShape color06d6a0"></circle><path fill="#13aa52" d="M26.44,240.51c0-109,88.37-197.38,197.37-197.38S421.19,131.5,421.19,240.51,331.72,435.67,222.71,435.67,26.44,349.52,26.44,240.51Z" class="colorfeaf02 svgShape color06d6a0"></path><polygon fill="#13aa52" points="180.42 284.3 182.29 288.98 187.91 292.73 193.52 294.6 196.33 294.6 197.26 285.24 200.07 278.69 204.73 275.49 204.75 265.58 206.53 257.16 212.24 248.74 215.98 245 219.73 239.38 223.47 230.96 225.34 222.53 225.73 213.67 219.73 221.6 210.37 234.7 208.5 235.64 204.75 232.83 195.39 226.28 197.17 224.31 199.98 221.5 201.01 217.85 199.14 214.11 195.39 214.11 185.94 216.82 181.35 220.66 177.61 223.47 176.68 228.15 178.55 233.76 180.42 240.32 182.29 250.61 182.29 265.58 180.42 284.3" class="colorfff svgShape color06d6a0"></polygon><polygon fill="#13aa52" points="124.26 270.26 123.33 262.78 127.07 259.97 140.17 253.42 145.79 245.93 147.66 228.15 146.73 218.79 151.41 215.05 153.28 209.43 152.34 204.75 142.98 197.26 139.24 181.35 133.62 167.32 131.75 164.51 129.69 164.78 110.22 181.35 103.93 184.47 105.55 189.78 104.61 203.82 101.72 210.91 98.06 209.43 94.31 211.3 92.44 215.05 92.44 220.04 94.31 225.34 97.12 227.21 99 229.09 95.25 237.51 89.64 244.06 83.08 246.87 76.36 245.93 79.51 257.16 81.38 269.33 81.21 277.75 83.08 281.5 87.76 282.43 103.67 276.82 113.97 271.2 124.26 270.26" class="colorfff svgShape color06d6a0"></polygon><polygon fill="#13aa52" points="282.43 239.38 271.2 211.3 261.84 192.59 249.68 182.29 247.8 183.23 227.21 211.3 230.02 212.24 239.47 213.79 253.42 213.18 256.23 220.66 258.1 229.09 260.91 239.38 262.78 247.8 282.43 239.38" class="colorfff svgShape color06d6a0"></polygon><polygon fill="#13aa52" points="175.74 208.5 179.15 197.62 185.1 172.93 194.46 147.66 199.14 136.43 201.01 135.5 210.37 141.11 213.18 142.05 216.92 137.37 219.73 133.62 221.6 133.62 241.25 142.98 259.03 152.34 264.65 157.02 264.65 160.76 254.35 174.8 248.74 182.29 245 186.97 239.38 194.46 226.55 212.2 210.37 235.64 207.56 235.64 196.06 226.82 177.61 212.24 175.74 209.43 175.74 208.5" class="colorfff svgShape color06d6a0"></polygon><polygon fill="#13aa52" points="301.15 236.57 309.18 239.46 348.88 192.59 356.52 179.95 348.88 171.06 335.78 176.68 318 193.52 305.83 218.79 301.15 236.57" class="colorfff svgShape color06d6a0"></polygon><path fill="#13aa52" d="M81.21,284.3,71.85,304l-7.48,20.59-5.62,17.78-2.46,20.18s39,49.08,107.28,65.92l-.11-25.11,12.28,6.39,33.69,14,18.72,5.62,10.29-3.74,5.62-4.68,1.87-5.62v-7.49l-1.87-6.55-32.21-14.35-17.39-8.11-13.11-13.1-1.87-7.49,3.75.94,5.61-.94,4.68-4.68,2.81-5.62V294.6h-2.81l-6.63-2.26-4.6-4.29-1.87-.94-.94,15-1.87,12.16L175.74,318l-3.74-.94-7.34-1.95-4.83-1.79-4.68-3.75-10.3-18.72-8.42-12.16L129.88,274l-7.49-2.81-7.49.94-10.29,3.74-8.42,4.68-8.43,1.87-5.61.94Z" class="colorfff svgShape color06d6a0"></path><path fill="#13aa52" d="M98.06 399.42s24.33-46.8 26.2-53.35c0 0 49.61 60.84 120.74 73 0 0-8.43 8.43-15 10.3l-67.93-26.83s3.67 24 2.11 26.83h0S120.52 416.27 98.06 399.42zM198.2 380.7s-2.47-93.36.17-96.28 4.51-12.28 90.61-46.91c0 0 17.79-.94 28.08 4.68s67.39 28.07 71.13 33.69c1.56 2.34 1.87 47.73 1.87 47.73l-8.42 35.57s-5.62-2.81-9.36-.94-11.23 10.29-11.23 10.29l-5.62 4.68v4.68l4.45 1.56 4 .32v6.55a29 29 0 01-9 10c-6 4-40.62 26.46-40.62 26.46L301 412.27s9.54-.68 11.41-3.49a7.2 7.2 0 00-.94-9.36c-2.8-2.81-3.74.94-7.48.94s-8.66-2.53-8.66-2.53-3.51-2.15-22.23 13.76c0 0-28.07-5.62-32.75-11.23zM76.53 245.93l4.68.94 5.62-.94 5.11-3.74 4.25-5.62 1.87-4.68v-3.74l-1.87-.94-2.81-2.8-1.87-5.62v-3.74l.93-3.75 1.88-1.87 2.8-.93 5.62 1.87.93-6.55.94-9.36v-5.62l-1.87-4.68-9.36 3.75-10.3 1.87-10.29.93-4.68-.93-5.62-1.87a24.49 24.49 0 01-6.55-2.81c-2.8-1.87 2.81 17.78 2.81 17.78l8.42 23.4 7.49 16.84z" class="colorfed902 svgShape color06d6a0"></path><path fill="#13aa52" d="M216,286.18l96.4,4.67s5.67-2.31,6.58-3.49,7.46,9.11-41.21,13.79l2,9.46,6.9,10.18S225.34,292.73,216,286.18Z" class="colorefa106 svgShape color06d6a0"></path><path fill="#13aa52" d="M306.3,238.6s16.38-52.57,45.39-59.12l9.36.16,10.56-2.19,5.35-1.71,3.74-5.62,4.68,2.81s19.66,12.17,27.14,36.5,13.11,47.73,11.23,59c0,0-9.36-1.87-12.16-.93s-14,4.8-14.48,7.08-.81,32.85-5.8,42.36l-4.06-38.21s-.93-5.62-7.48-8.43-16.85-8.11-43.06-19.49S306.3,238.6,306.3,238.6Z" class="colorfed902 svgShape color06d6a0"></path><path fill="#13aa52" d="M62.49,187.91l9.44,2.16,17-1.08,17.55-5.76,14-9.36,16.85-17.79,5.61-8.42,1.87-8.42-5.61-10.3H126.58l-9.8,5.62-11.23,6.55L88.7,146.73l-15,8.42-10.3,9.36-5.62,9.36-1.87,8.42S53.14,187,62.49,187.91Z" class="colorefa106 svgShape color06d6a0"></path><path fill="#13aa52" d="M169.19,336.71l9.36,20.59h4.68l6.55-.93,6.55-8.43V319.87l2.81-25.27H192.9l-8.74-3.75s2.81,38.38-2.81,38.38-19.65-8.43-19.65-8.43Z" class="colorfed902 svgShape color06d6a0"></path><circle cx="218.79" cy="218.79" r="217.13" fill="none" stroke="#000" stroke-miterlimit="10" stroke-width="2.21" class="colorStroke332900 svgStroke colorStroke000"></circle><path fill="#13aa52" d="M293.72,397.83l-.06-66.73-3.6-8.58s-4.82-5.46,6.41-7.33,44.92-23.4,46.8-32.76,1.87-17.78-25.27-15l-19.66-24.34s-9.36-8.42,7.49-2.8,74.87,29,74.87,29,8.42,5.61,9.36,15,.94,31.82.94,31.82v7.49l-9.36,35.57s-5.56-2.81-10.73.46a35.06,35.06,0,0,0-8.93,8.89l-5.61,4.68s-1.87,5.62,1.87,5.62a27.69,27.69,0,0,0,8.42-1.87l-2.8,9.36s-5.62,8.42-8.43,10.29-40.59,26.29-40.59,26.29l-12.75-9.44s7.48-2.81,10.29-5.62,2.64-7.25,1.32-7.37a22,22,0,0,0-8.81-.11c-4.68.93-4.56-2.25-11.17-2.53" class="colorefa106 svgShape color06d6a0"></path><path d="M213,144.25a.83.83,0,0,0,0-1.66.83.83,0,0,0,0,1.66Z" class="color000 svgShape" fill="#3f4757"></path><polygon fill="#13aa52" points="315.19 81.21 325.17 73.1 339.52 62.49 354.18 53.6 380.7 46.58 368.54 42.84 358.24 45.65 345.14 49.39 332.04 55.01 321.74 66.24 315.19 81.21" class="colorfff svgShape color06d6a0"></polygon><polygon fill="#13aa52" points="381.64 291.79 381.64 304.89 380.23 307.23 368.93 314.87 366.66 313.32 366.66 301.15 368.54 298.34 379.77 290.86 381.64 291.79" class="colorfff svgShape color06d6a0"></polygon><path fill="#13aa52" d="M245.93,404.91,271.05,412s1.53.47,6.4-3.54,12-12.81,17.85-10.62A40.06,40.06,0,0,0,308.93,400c2.17.06,8.81,1.17,3.27,7.81s-10,4.75-10,4.75,6.45,10,12.68,10.39-6,18.07-27,15.86-56-9.39-56-9.39a86.49,86.49,0,0,0,10.39-7.58c4.61-4.06,4.14-9.8,2.72-15.23S245.93,404.91,245.93,404.91Z" class="colorfff svgShape color06d6a0"></path><path fill="#13aa52" d="M230.19,429.58c7.38-1.66,14.1-5.06,16.52-12.76,1.81-5.76.62-15-5.65-17.51-2-.79-2.85,2.42-.88,3.2,5.69,2.25,4.34,12.4,2,16.31-2.86,4.74-7.72,6.41-12.85,7.56-2.09.47-1.2,3.67.88,3.2Z" class="color00393d svgShape color06d6a0"></path><path fill="#3f4757" d="M302.09,412.91c6.17.67,11.88-1.51,13.09-8.38.78-4.44-1.15-7.6-5.76-7.27-1.46.11-2.92.54-4.37.62-3.37.18-4.33-.83-7.17-1.43A15.77,15.77,0,0,0,290,397c-7.26,2.31-12,8.53-17.08,13.84-1.47,1.55.88,3.9,2.35,2.34,6.31-6.64,13.78-16.51,24.14-12.65,3.63,1.36,5.05.71,9.05.22,3.73-.46,4.44,1.92,2.61,5.44s-5.44,3.8-9,3.42c-2.12-.24-2.1,3.09,0,3.32Z" class="color332900 svgShape color263745"></path><path fill="#3f4757" d="M316.17 421.24a16.85 16.85 0 01-12.88-10.35c-.74-2-4-1.13-3.2.88a20.25 20.25 0 0016.08 12.79c2.11.27 2.09-3.05 0-3.32zM100.58 229.41A26.19 26.19 0 0191.4 243.7a19.79 19.79 0 01-7.73 3.77 10.42 10.42 0 01-4.45.07 6.88 6.88 0 01-3.85-2.39.74.74 0 011.13-1 5.24 5.24 0 003.06 1.67 8.44 8.44 0 003.65-.28 17.71 17.71 0 006.65-3.71 23.37 23.37 0 007.47-13.14 1.67 1.67 0 011.94-1.34 1.66 1.66 0 011.33 1.93.29.29 0 010 .09zM178.78 359.24c4.09 1.2 8.58 1.16 12-1.72s6.49-7.4 7.32-11.73c.4-2.09-2.8-3-3.2-.88-.65 3.4-2.75 6.28-5 8.83-2.77 3.1-6.37 3.42-10.2 2.3-2-.61-2.93 2.6-.88 3.2zM157.38 309.32a.32.32 0 00-.1-.1l-.06 0h0l.05 0 .26.14.67.33 1.47.69a28.38 28.38 0 013 1.61 42.3 42.3 0 005.51 2.92l2.91 1.32a24.53 24.53 0 002.85 1.14 47.47 47.47 0 006.18 1.27 1.11 1.11 0 01-.34 2.19h0a47.91 47.91 0 01-6.48-1 28.41 28.41 0 01-3.19-1.09l-3-1.2a45.77 45.77 0 01-6-2.82 24.63 24.63 0 00-2.73-1.3l-1.48-.61-.79-.34-.46-.22-.29-.18-.08-.05-.14-.1a2.83 2.83 0 01-.25-.24 1.72 1.72 0 01.11-2.44A1.73 1.73 0 01157.38 309.32zM178.36 226.08c.45-3.15 6.34-7.18 9-8.07 3-1 6.2-1 9.24-1.82 2.12-.53 3.1-1 3.34 1.8.18 2.15-1.06 3.18-2.67 4.33-2.28 1.62-4.58 2.53-6.67 4.44-1.18 1.09.58 2.85 1.76 1.77 2.79-2.56 8.41-4 9.84-7.91.85-2.33.65-7.45-2.53-7.86-1.85-.23-4.7 1.2-6.62 1.53a34.55 34.55 0 00-7.59 1.74c-3.41 1.45-9 5.5-9.5 9.39-.23 1.57 2.17 2.25 2.4.66z" class="color332900 svgShape color263745"></path><path fill="#3f4757" d="M176.76 318.1c2.91-5.91 3-13.1 3.59-19.55.82-8.35 1.47-16.71 2.18-25.07.69-8.12 1.89-16.43 1.09-24.58A44.06 44.06 0 00181 238.13c-1.48-4.14-3.65-8.8-2.37-13.22a1.25 1.25 0 00-2.4-.66c-1.79 6.17 1.84 12.15 3.55 17.94 2.48 8.37 1.42 17.2.69 25.75q-1 12-2 24.08c-.69 7.89-.3 17.62-3.85 24.82-.7 1.43 1.45 2.7 2.15 1.26zM225.14 212.38c-1.31 13.49-2.86 26.18-13.2 35.9-8.15 7.67-7.83 17.81-8.46 28.31-.09 1.6 2.4 1.6 2.49 0 .39-6.41.09-13.54 2.54-19.57 2.2-5.41 7.49-8.39 10.76-13.09 6.42-9.22 7.31-20.71 8.36-31.55.16-1.59-2.34-1.58-2.49 0z" class="color332900 svgShape color263745"></path><path fill="#3f4757" d="M181.19 285.3a10.91 10.91 0 002.94 3.39 19 19 0 003.92 2.31 23.7 23.7 0 004.35 1.47 20.13 20.13 0 004.47.57h.06a1.1 1.1 0 011.1 1.12 1.11 1.11 0 01-.85 1.07 13.09 13.09 0 01-5.36 0 18.4 18.4 0 01-5-1.69 15.22 15.22 0 01-4.28-3.17 9 9 0 01-2.47-4.77.59.59 0 01.51-.67.58.58 0 01.61.31zM192.91 240.17a9.78 9.78 0 001.26-3.06 16.36 16.36 0 00.45-3.42 16.86 16.86 0 00-.26-3.42 9 9 0 00-1.05-3v0a1.39 1.39 0 012.38-1.43.59.59 0 000 .08 11.86 11.86 0 011.17 4 20 20 0 01.07 3.94 18.82 18.82 0 01-.73 3.85 11.73 11.73 0 01-1.76 3.63 1 1 0 01-1.58-1.1zM273.93 410.59c-15.88-3.22-30.32-10.76-45-17.34s-33.34-12.45-43.4-25.87c-4.38-5.85-6.86-13.52-9.9-20.13-4.38-9.5-8.82-19-13.39-28.4-4.69-9.67-9.27-19.5-14.75-28.76-3.62-6.1-7.32-13-13.44-16.92a25.81 25.81 0 00-22.88-2.81c-8.47 2.95-18.23 10.7-27.74 8.37-2.49-.61-3.56 3.23-1.06 3.84 6.52 1.6 14.23-1.15 20.1-3.88 8.93-4.16 16.43-8.13 26.13-3.88 8.15 3.57 12.37 11.91 16.61 19.28 5.43 9.47 10.07 19.45 14.81 29.28q6.52 13.54 12.78 27.23c3.06 6.66 5.57 14.15 10.17 19.93 10 12.53 26.6 18.48 40.75 24.74 16 7.09 31.73 15.64 49.1 19.17 2.51.5 3.58-3.34 1.06-3.85z" class="color332900 svgShape color263745"></path><path fill="#3f4757" d="M318.57,423.28a15.66,15.66,0,0,1-3.82,7.73,21.38,21.38,0,0,1-6.61,5c-4.94,2.41-10.17,3.08-15,3.7a117.44,117.44,0,0,1-15,1.24,51.2,51.2,0,0,1-7.71-.57c-2.54-.39-5-.94-7.41-1.51L234.44,432c-4.76-1.17-9.55-2.35-14.32-3.7s-9.5-2.94-14.14-4.65-9.21-3.56-13.75-5.44-9.06-3.74-13.58-5.77a128.45,128.45,0,0,1-13.33-6.78c-2.16-1.29-4.25-2.7-6.29-4.2a63.19,63.19,0,0,1-5.8-4.93,62.53,62.53,0,0,1-9.31-11.9c-2.65-4.22-5.06-8.46-7.56-12.67q-7.46-12.68-14.77-25.43a1,1,0,0,1,.38-1.4,1,1,0,0,1,1.38.33q8,12.38,15.78,24.81c5.3,8.25,10,16.91,16.89,23.34s15.57,10.85,24.46,14.64c4.46,1.89,9,3.73,13.54,5.57s9.06,3.61,13.63,5.25,9.15,3.14,13.82,4.41,9.4,2.41,14.17,3.53l28.59,6.78c2.36.56,4.69,1.07,7,1.42a45.92,45.92,0,0,0,6.94.5,129,129,0,0,0,14.32-1.15c4.82-.56,9.49-1.22,13.42-3.12s7.11-5.19,7.76-9a2.49,2.49,0,0,1,4.91.84Z" class="color332900 svgShape color263745"></path><path fill="#3f4757" d="M163.73 401.29l2.2 13.41c.3 2.27.67 4.52.86 6.84s.32 4.61.34 6.93a2.31 2.31 0 01-4.61 0v-.11c.08-2.2.08-4.39 0-6.59s-.33-4.41-.52-6.63l-1.54-13.4v0a1.66 1.66 0 013.29-.46zM84.46 283.43A35.37 35.37 0 0081.81 288l-2.44 4.61c-1.61 3.08-3.19 6.16-4.68 9.27a163.44 163.44 0 00-7.79 19.08c-1.11 3.26-2.13 6.56-3.1 9.88s-1.89 6.59-2.62 9.91-1.34 6.64-1.79 10c-.22 1.68-.4 3.37-.56 5.07a35.87 35.87 0 01-.71 5.11v0a2.81 2.81 0 01-5.52-.34 27.22 27.22 0 010-5.34c.16-1.78.33-3.56.56-5.34a92.72 92.72 0 011.93-10.6c.84-3.48 1.84-6.95 3-10.28s2.23-6.69 3.46-10a168.68 168.68 0 018.62-19.44c1.63-3.14 3.33-6.22 5-9.28l2.59-4.57a36.61 36.61 0 002.44-4.64 2.44 2.44 0 014.55 1.77 2.24 2.24 0 01-.31.57z" class="color332900 svgShape color263745"></path><path fill="none" stroke="#000" stroke-linecap="round" stroke-linejoin="round" stroke-width="2.21" d="M123.44,269.81c.19-2.09-.79-4-.69-6,.13-2.57,2.11-3.19,4.21-4.45,5-3,10.63-5.06,15.38-8.4s5.11-7.79,5.69-13.37a78.94,78.94,0,0,0-.19-18.37" class="colorStroke332900 svgStroke colorStroke000"></path><path fill="#3f4757" d="M133.94,163.52a94.26,94.26,0,0,1,6.79,14.8c.23.64.44,1.27.66,1.94s.41,1.36.58,2c.33,1.36.58,2.7.83,4a54.52,54.52,0,0,0,1.76,7.55,18.05,18.05,0,0,0,.68,1.69l.41.78c.15.22.28.43.43.64a13.1,13.1,0,0,0,2.6,2.37c1,.76,2.15,1.49,3.28,2.34a13.06,13.06,0,0,1,3.22,3.21l.34.53.28.59a5.55,5.55,0,0,1,.41,1.34,7.17,7.17,0,0,1-.09,2.59,13.83,13.83,0,0,1-1.72,4.18,20.55,20.55,0,0,1-2.63,3.45,12.26,12.26,0,0,1-3.67,2.73,1.41,1.41,0,0,1-1.26-2.53l.11-.06a10,10,0,0,0,2.56-2.22,17.17,17.17,0,0,0,2.12-3,11.12,11.12,0,0,0,1.27-3.21,3.91,3.91,0,0,0,0-1.39,3.66,3.66,0,0,0-.54-1.19,10,10,0,0,0-2.45-2.38c-1-.76-2.12-1.48-3.25-2.31a16.21,16.21,0,0,1-3.28-3c-.24-.32-.47-.68-.68-1l-.52-1a20.45,20.45,0,0,1-.83-2c-1.84-5.45-1.94-10.79-3.85-15.52a96,96,0,0,0-6.46-14.33,1.63,1.63,0,1,1,2.85-1.6Z" class="color332900 svgShape color263745"></path><path fill="#3f4757" d="M80.23,281.13a113.31,113.31,0,0,0-.39-15.33,57,57,0,0,0-3.58-14.7c-1.85-4.72-4.16-9.39-6.14-14.2s-3.92-9.61-5.73-14.47-3.55-9.74-5.23-14.64l-2.48-7.36a74.11,74.11,0,0,1-2.24-7.58,35.65,35.65,0,0,1-.81-8c0-1.35.08-2.64.2-4a27.86,27.86,0,0,1,.69-4,34.15,34.15,0,0,1,7.75-14.09,69.5,69.5,0,0,1,11.86-10.51,81,81,0,0,1,13.68-7.91,142.7,142.7,0,0,1,14.71-5.39,72.69,72.69,0,0,0,7.06-2.73,43.16,43.16,0,0,0,6.49-3.68c2.13-1.41,4.3-2.92,6.72-4.22a18.32,18.32,0,0,1,8.21-2.42,19.42,19.42,0,0,1,4.31.51,15.39,15.39,0,0,1,4.14,1.57A11.5,11.5,0,0,1,143,131a11.84,11.84,0,0,1,2,4.17,19.91,19.91,0,0,1,.11,8.58,38.29,38.29,0,0,1-2.39,7.84,51,51,0,0,1-3.75,7.18,35.43,35.43,0,0,1-5.13,6.49,2.21,2.21,0,1,1-3.08-3.18v0l0,0a31.45,31.45,0,0,0,4.52-5.61,45.75,45.75,0,0,0,3.51-6.5A33.35,33.35,0,0,0,141,143a15.77,15.77,0,0,0,.05-6.8,7.48,7.48,0,0,0-3.55-4.85,11.48,11.48,0,0,0-3.06-1.2,15.55,15.55,0,0,0-3.37-.45,14.49,14.49,0,0,0-6.53,1.9c-2.16,1.11-4.26,2.54-6.45,4-1.09.71-2.21,1.43-3.39,2.09s-2.4,1.26-3.62,1.81c-2.45,1.1-4.94,2-7.42,2.81a136.78,136.78,0,0,0-14.44,5.14A78.34,78.34,0,0,0,76,154.83a66.69,66.69,0,0,0-11.38,9.92,31,31,0,0,0-7.15,12.77,24.3,24.3,0,0,0-.63,3.59c-.11,1.21-.18,2.5-.19,3.74a32.49,32.49,0,0,0,.7,7.37,74.6,74.6,0,0,0,2.12,7.29l2.44,7.34q2.47,7.34,5.14,14.59t5.62,14.39c1.93,4.76,4.2,9.37,6.11,14.29a68.3,68.3,0,0,1,3.86,15.32c.39,2.61.64,5.22.83,7.83l.53,7.79a1.89,1.89,0,1,1-3.78.26Z" class="color332900 svgShape color263745"></path><path fill="#3f4757" d="M63.2 187.45a29.6 29.6 0 009.45 1.74 52.84 52.84 0 009.72-.65 96.3 96.3 0 0018.92-5.14 61.07 61.07 0 0016.59-10 187.94 187.94 0 0014.4-13.46 1.66 1.66 0 112.35 2.34l0 0a192.19 192.19 0 01-14.93 13.35 63.86 63.86 0 01-17.53 10.05 98.18 98.18 0 01-19.49 4.84 54.82 54.82 0 01-10.09.46 31.34 31.34 0 01-10-2.07.8.8 0 01.58-1.5zM101.54 211.9a2.6 2.6 0 00-2.21-2 5 5 0 00-3.33.33 4.39 4.39 0 00-2 2.56 11.82 11.82 0 00-.49 1.8c0 .31-.08.61-.11.93v1a14.75 14.75 0 002.34 7.38 6.82 6.82 0 006.1 3.39h0a1.07 1.07 0 011.14 1 1.09 1.09 0 01-.89 1.13 8 8 0 01-4.9-.75 10 10 0 01-3.65-3.22 16.08 16.08 0 01-3-8.83l0-1.21c0-.4.09-.81.13-1.21a11.62 11.62 0 01.66-2.37 9.49 9.49 0 011.24-2.22 6 6 0 012.19-1.71 7.19 7.19 0 015.12-.14 5.05 5.05 0 012.25 1.45 3.91 3.91 0 011 2.56.85.85 0 01-.86.86.86.86 0 01-.84-.68z" class="color332900 svgShape color263745"></path><path fill="#3f4757" d="M104.7 183.61a32.27 32.27 0 011.51 14.15 93.3 93.3 0 01-2.58 13.72 1 1 0 01-1.2.72 1 1 0 01-.73-1.18A90.93 90.93 0 00104 197.58a29.76 29.76 0 00-1.62-13.07 1.26 1.26 0 01.71-1.63 1.25 1.25 0 011.63.7zM129.18 238.19a2.17 2.17 0 01.88-.1 2.47 2.47 0 01.77.11l.77.12.79.05a10.78 10.78 0 008.49-3.82l0 0a1.11 1.11 0 011.82 1.25 11.34 11.34 0 01-6.3 5.05 12.29 12.29 0 01-4.09.65l-1.05-.06-1.05-.15a4.73 4.73 0 01-1-.32 3 3 0 01-.86-.7 1.27 1.27 0 01.22-1.78 1.22 1.22 0 01.37-.2zM129.57 179.05c-5-.77-7.6 5-6.63 9.15.36 1.57 2.77.91 2.4-.66-.48-2.09.56-6.55 3.57-6.09 1.57.25 2.24-2.15.66-2.4z" class="color332900 svgShape color263745"></path><ellipse cx="134.69" cy="196.85" fill="none" stroke="#000" stroke-miterlimit="10" stroke-width="2.21" class="colorStroke332900 svgStroke colorStroke000" rx="3.28" ry="6.62" transform="rotate(-13.92 134.678 196.848)"></ellipse><polygon fill="#13aa52" points="364.79 39.1 371.97 28.18 379.77 20.38 394.43 15.23 416.27 19.44 413.46 14.76 401.29 6.34 381.64 4.47 366.66 11.96 361.98 23.19 364.79 39.1" class="colorfff svgShape color06d6a0"></polygon><path fill="#13aa52" d="M402.23,60.62,415.08,54l6.8-11.15V33.48l-4.68-15S374,1.66,363.68,36.29l3,7.49L378.78,47s-17.73-4.14-50.49,22.07l16.85-6.56,7.48-.93,2.65,10.29,3.91,8.43,10.29,12.16,13.1,9.36,7.49,4.68,3.74.94,3.75-2.81A21.79,21.79,0,0,1,404.1,99C407.84,97.12,402.23,60.62,402.23,60.62Z" class="colorefa106 svgShape color06d6a0"></path><polygon fill="#13aa52" points="349.82 161.7 349.97 172.93 351.69 179.48 361.05 180.42 375.87 176.68 380.08 171.06 379.77 151.23 387.71 141.56 393.8 131.75 397.55 123.33 400.36 123.33 405.97 122.39 413.46 115.84 415.33 109.29 414.39 102.74 410.65 99.93 405.04 99 398.48 102.74 395.68 108.35 391.93 108.35 376.96 99.93 364.79 88.7 355.43 74.66 351.69 62.49 345.14 63.43 328.12 68.88 318.67 76.28 315.19 81.21 313.32 90.57 310.51 113.97 314.25 131.75 319.87 148.6 326.42 156.09 334.84 161.7 349.82 161.7" class="colorfff svgShape color06d6a0"></polygon><path fill="#3f4757" d="M400.62,57.68A26.19,26.19,0,0,0,408.48,55a17.86,17.86,0,0,0,6.12-5c3.22-4.35,4.61-10.06,4.69-15.62a29.91,29.91,0,0,0-1.13-8.25,29.11,29.11,0,0,0-3.3-7.64,26.33,26.33,0,0,0-5.38-6.28,23.18,23.18,0,0,0-7.12-4.08,29,29,0,0,0-8.25-1.65,48.14,48.14,0,0,0-8.66.1,45.86,45.86,0,0,0-8.51,1.72,29.33,29.33,0,0,0-7.8,3.47,11.55,11.55,0,0,0-3,2.66A14.21,14.21,0,0,0,364.19,18a22.61,22.61,0,0,0-1.31,8.41,36.19,36.19,0,0,0,1.32,8.66,84.58,84.58,0,0,0,2.93,8.45v0l0,.06a1.23,1.23,0,0,1-.7,1.6,1.17,1.17,0,0,1-.45.09,31.26,31.26,0,0,0-5.5.36c-.43.08-.83.17-1.26.29l-1.35.36-2.69.74c-3.58,1-7.13,2.06-10.57,3.36-6.87,2.54-13.37,6.13-18.24,11.43a46.76,46.76,0,0,0-10.17,18.88,79.06,79.06,0,0,0-2.71,21.67c0,3.68.13,7.37.34,11.07s.45,7.41.85,11.05c.81,7.26,2.31,14.48,5.83,20.61a33.71,33.71,0,0,0,6.49,8.24,22.75,22.75,0,0,0,8.75,5.23,25.85,25.85,0,0,0,10.34.57,48.44,48.44,0,0,0,10.55-2.48h0a1.19,1.19,0,0,1,.91,2.2,44.55,44.55,0,0,1-11,3.55,27.72,27.72,0,0,1-11.88-.15,25.71,25.71,0,0,1-10.47-5.87,36.52,36.52,0,0,1-7.36-9.25,45.2,45.2,0,0,1-4.26-10.89A77.93,77.93,0,0,1,310.7,125c-.39-3.78-.62-7.54-.79-11.29s-.25-7.53-.18-11.32a82.74,82.74,0,0,1,3.2-22.59,50.06,50.06,0,0,1,11.25-20c5.39-5.67,12.42-9.35,19.54-11.85,3.58-1.28,7.21-2.29,10.84-3.24l2.72-.7,1.36-.34c.47-.12,1-.23,1.47-.31,2-.32,3.88-.28,5.66-.63l-1.13,1.75v0c-.85-2.89-1.83-5.78-2.57-8.75a43,43,0,0,1-1.52-9.15,25.06,25.06,0,0,1,1.18-9.37,17.61,17.61,0,0,1,2.16-4.37,14.33,14.33,0,0,1,3.55-3.49,32.89,32.89,0,0,1,8.46-4.24A49.81,49.81,0,0,1,385,2.81a48.38,48.38,0,0,1,9.38-.43A32.79,32.79,0,0,1,403.79,4a27.93,27.93,0,0,1,8.55,4.71A31,31,0,0,1,418.79,16a33.72,33.72,0,0,1,4,8.82,34.86,34.86,0,0,1,1.3,9.58A33.65,33.65,0,0,1,422.64,44a27.25,27.25,0,0,1-4.38,8.77,19.44,19.44,0,0,1-8,6,21.69,21.69,0,0,1-9.52,1.8,1.41,1.41,0,0,1-.14-2.79Z" class="color332900 svgShape color263745"></path><path fill="#3f4757" d="M391 49.19a26.14 26.14 0 0110.68 9.18 36.7 36.7 0 015.48 12.87A55.25 55.25 0 01408.26 85c-.16 4.58-.71 9.07-1.21 13.49a2.21 2.21 0 11-4.4-.5V98c.62-4.43 1.27-8.79 1.52-13.12A50.52 50.52 0 00403.46 72a33.11 33.11 0 00-4.63-11.72 22.88 22.88 0 00-9.14-8.3 1.53 1.53 0 01-.73-2A1.55 1.55 0 01391 49.19zM314.35 79.5a58.57 58.57 0 0117.41-12.81 69.58 69.58 0 0120.69-6.5h0a1.3 1.3 0 011.5 1.07v.16a41.72 41.72 0 004.55 15 52.7 52.7 0 009.3 12.8 72.71 72.71 0 0012.39 10.1c2.24 1.49 4.55 2.87 6.9 4.18s4.75 2.57 7.18 3.76a1.34 1.34 0 01-1.13 2.43q-3.78-1.67-7.47-3.55c-2.45-1.29-4.86-2.67-7.2-4.15a73.53 73.53 0 01-13.05-10.45 55 55 0 01-9.76-13.69 46.39 46.39 0 01-3-7.91 40.76 40.76 0 01-1.37-8.36l1.51 1.23h0a67.3 67.3 0 00-20.12 5.76 56.57 56.57 0 00-17.17 12 .79.79 0 01-1.11 0A.81.81 0 01314.35 79.5z" class="color332900 svgShape color263745"></path><path fill="none" stroke="#000" stroke-linecap="round" stroke-linejoin="round" stroke-width="2.21" d="M394.36 108.64c.74-4 7.8-8.65 11.6-9.08 4.87-.56 9 3.55 9.12 8.39.25 8-9.74 17.84-17.9 14.86M397 123.61A121.93 121.93 0 01390 137.93a54.3 54.3 0 01-11.61 14.15" class="colorStroke332900 svgStroke colorStroke000"></path><path fill="#3f4757" d="M379.8 151.75a154.77 154.77 0 01.7 16.83l-.07 2.11a7.1 7.1 0 01-.48 2.37 7.39 7.39 0 01-3.19 3.53c-2.66 1.56-5.53 2.06-8.17 2.78a45.61 45.61 0 01-8.4 1.67 15.62 15.62 0 01-4.5-.26 8.66 8.66 0 01-4.27-2.25 10.08 10.08 0 01-2.28-4.17 20.43 20.43 0 01-.88-4.4c-.25-2.78-.46-5.57-.83-8.23v0a1.62 1.62 0 013.2-.45.17.17 0 000 .07c.26 2.88.34 5.67.45 8.44a17.73 17.73 0 00.63 3.81 7.72 7.72 0 001.55 3.17c1.5 1.68 4.19 2.11 6.79 2a43.26 43.26 0 008-1.43c2.72-.69 5.45-1.2 7.64-2.47a5.33 5.33 0 002.37-2.52 4.9 4.9 0 00.35-1.7l.06-2.07c0-2.75 0-5.52-.16-8.28s-.42-5.52-.72-8.28a1.11 1.11 0 112.2-.24zM318 100.28a5.5 5.5 0 016.37-1.17 4.28 4.28 0 011.36 1.21 8.19 8.19 0 01.85 1.37 15.28 15.28 0 011.12 2.92 18.39 18.39 0 01.61 3c.12 1.06.12 2 .15 3 0 2 0 4-.14 6s-.3 4-.56 5.94c-.13 1-.26 2-.45 3l-.54 2.86a25.15 25.15 0 00-.34 2.75v.33c0 .09 0 .26 0 .23s0 .07 0 .13a1.7 1.7 0 00.58.54 9.07 9.07 0 004.82 1h.09a1.1 1.1 0 01.33 2.18 9.61 9.61 0 01-3.33.08 8.77 8.77 0 01-3.23-1 4.19 4.19 0 01-1.56-1.44 2.92 2.92 0 01-.4-1.26 3.36 3.36 0 010-.49c0-.14 0-.28 0-.41a27.28 27.28 0 01.38-3.08c.35-2 .75-3.83 1.05-5.74s.54-3.82.71-5.74.27-3.85.31-5.78c0-1 .06-1.94 0-2.83a18.12 18.12 0 00-.41-2.74 14.15 14.15 0 00-.86-2.6 8.58 8.58 0 00-.63-1.16 2.37 2.37 0 00-.76-.78 3.42 3.42 0 00-2.29-.43 3.92 3.92 0 00-2.2.92l-.07.07a.64.64 0 01-1-.85zM355.45 106.36a8.48 8.48 0 00-2.5-3.07 7.62 7.62 0 00-3.58-1.55 7.83 7.83 0 00-3.91.41 8.73 8.73 0 00-3.4 2.25h0a.65.65 0 01-1-.78 8.53 8.53 0 013.69-3.26 9.23 9.23 0 015-.82 9.39 9.39 0 014.65 2 8.81 8.81 0 012.84 4.14.92.92 0 01-1.7.67zM335.53 145.83a16.66 16.66 0 005.68 1.09 14.52 14.52 0 005.62-.95 27.17 27.17 0 005.16-2.78 35.5 35.5 0 004.35-4.05 1.11 1.11 0 111.56 1.57l0 0a36.76 36.76 0 01-4.7 4.14 28.66 28.66 0 01-5.65 2.88 16.44 16.44 0 01-6.38.93 18.38 18.38 0 01-6.23-1.36.8.8 0 01-.43-1A.82.82 0 01335.53 145.83zM360.81 53.09a37.82 37.82 0 0117.68-6.48.7.7 0 01.76.63.71.71 0 01-.6.77 36 36 0 00-16.55 6.88 1.11 1.11 0 01-1.33-1.77zM413.5 38.93A13.08 13.08 0 00416 31.25a12.51 12.51 0 00-2.79-7.67h0a.73.73 0 011.11-.94 14 14 0 012.47 4 13.85 13.85 0 011.06 4.6 15.15 15.15 0 01-2.57 9A1.11 1.11 0 11413.47 39l0 0zM405.89 47.8a24.64 24.64 0 004.33-14.29.66.66 0 011.32-.06A26.32 26.32 0 01407.75 49a1.11 1.11 0 11-1.89-1.15z" class="color332900 svgShape color263745"></path><path fill="none" stroke="#000" stroke-linecap="round" stroke-linejoin="round" stroke-width="2.21" d="M348.81,170.75c-13.6,3.13-25,16.18-32.33,28.06a111.71,111.71,0,0,0-14.8,38.45l.4-.69" class="colorStroke332900 svgStroke colorStroke000"></path><path fill="#3f4757" d="M249 183.94c9.63 4.2 14.7 13.06 18.74 22.32 4.64 10.67 8.89 21.52 13.32 32.28.6 1.46 3 .82 2.4-.66-4.72-11.48-9.15-23.14-14.27-34.45-4.12-9.11-9.49-17.52-18.93-21.64-1.46-.63-2.73 1.51-1.26 2.15zM228.15 210.66a58 58 0 0013.51 2 101.2 101.2 0 0013.8-.57.79.79 0 01.17 1.57 102.11 102.11 0 01-14 .9 60.08 60.08 0 01-14-1.79 1.11 1.11 0 01.54-2.15z" class="color332900 svgShape color263745"></path><path fill="#3f4757" d="M252.51 214.12q5 16.63 8.59 33.6c.33 1.56 2.74.9 2.4-.66q-3.64-17-8.58-33.6a1.25 1.25 0 00-2.41.66zM239.24 200.16a3.73 3.73 0 001.39-.73 20 20 0 011.84-1.12 17.33 17.33 0 014-1.5 17.14 17.14 0 018.45.09.7.7 0 01-.32 1.36h0a15.64 15.64 0 00-7.66.29 16.34 16.34 0 00-3.51 1.52 18.26 18.26 0 00-1.58 1.07 5.74 5.74 0 01-2.17 1.19h0a1.11 1.11 0 01-.52-2.16z" class="color332900 svgShape color263745"></path><polygon fill="#13aa52" points="397.55 274.94 403.4 270.82 413.15 267.11 418.76 267.11 423.75 268.39 425.08 282.24 423.75 293.66 421.88 315.19 415.33 331.1 405.04 351.69 397.55 367.6 384.44 388.19 368.54 395.68 357.3 395.68 361.05 390.06 364.79 383.51 365.73 376.96 359.18 379.77 353.56 375.09 357.3 370.41 364.17 366.19 369.47 360.11 380.7 358.24 392.87 315.19 397.55 293.66 397.55 274.94" class="colorfff svgShape color06d6a0"></polygon><path fill="#3f4757" d="M381.54,167.27c1.36.45,2.74.93,4.13,1.52a19.89,19.89,0,0,1,2.13,1.05,10,10,0,0,1,1.15.77l.83.72c1.1.94,2.21,1.87,3.24,2.88.52.5,1.05,1,1.56,1.5l1.5,1.56a85.44,85.44,0,0,1,10.56,13.64,115.1,115.1,0,0,1,13.49,31.44,199.13,199.13,0,0,1,5.66,33.55c.51,5.63.87,11.26,1.17,16.88s.61,11.24.55,17a78.15,78.15,0,0,1-1.89,17.2,82.77,82.77,0,0,1-2.31,8.35,63.43,63.43,0,0,1-3.32,8.06c-4.86,10.14-10,20.14-14.67,30.25-2.36,5.07-4.52,10.1-6.63,15.36a73.74,73.74,0,0,1-8.59,15.13,38.39,38.39,0,0,1-6.12,6.61,23.33,23.33,0,0,1-1.93,1.41l-1.05.64c-.35.2-.65.34-1,.52-1.29.67-2.64,1.31-4,1.88a33.2,33.2,0,0,1-8.78,2.28,22.51,22.51,0,0,1-9-.53,2.23,2.23,0,0,1,.58-4.37h.07c2.66-.07,5.22.15,7.77-.16a27.83,27.83,0,0,0,7.45-1.93c1.21-.49,2.4-1.05,3.6-1.67.29-.16.62-.31.88-.47l.74-.45c.5-.3,1-.71,1.47-1.06a34.07,34.07,0,0,0,5.28-5.72,68.89,68.89,0,0,0,8-14.05c2.07-5.15,4.34-10.43,6.73-15.52,4.78-10.23,9.89-20.2,14.75-30.29a66,66,0,0,0,5.28-15.34,72.83,72.83,0,0,0,1.81-16.18c.07-5.48-.24-11.06-.51-16.66s-.64-11.15-1.14-16.69a194.36,194.36,0,0,0-5.45-32.75,110.49,110.49,0,0,0-12.79-30.24,80,80,0,0,0-9.94-13l-1.4-1.48-1.47-1.42c-1-1-2-1.84-3-2.73l-.76-.66a6.72,6.72,0,0,0-.59-.39,14.75,14.75,0,0,0-1.64-.81c-1.19-.52-2.46-1-3.77-1.41a2.21,2.21,0,0,1,1.4-4.2Z" class="color332900 svgShape color263745"></path><path fill="#3f4757" d="M425,269.08c-6.06-7.69-23.92-2.74-28.42,4.62-1.12,1.83,1.75,3.5,2.87,1.68,3.41-5.59,18.63-9.75,23.2-3.95,1.32,1.68,3.66-.69,2.35-2.35Z" class="color332900 svgShape color263745"></path><path fill="#3f4757" d="M395,258.39c3.52,8.23,4.32,17.12,4.31,25.8a98,98,0,0,1-1,13,96.94,96.94,0,0,1-2.62,12.83c-2.34,8.21-4.54,16.46-6.76,24.7-1.12,4.12-2.2,8.25-3.27,12.38l-3.22,12.4v0a1.51,1.51,0,0,1-1.85,1.08l-.09,0h0a13.08,13.08,0,0,0-11,1.43,26.39,26.39,0,0,0-4.45,4,27.82,27.82,0,0,1-5.08,4.42c-.25.15-.5.31-.76.44l-.39.21-.27.16c-.4.25-.82.54-1.22.84a12.41,12.41,0,0,0-2.13,1.89c-.65.87-.41.53-.27,1.34a2.17,2.17,0,0,0,1.22,1.18,9.16,9.16,0,0,0,2.48.78,5.94,5.94,0,0,0,2.35.09c1.39-.22,2.77-1.38,4.23-2.86a1.49,1.49,0,0,1,2.33,1.84,13.45,13.45,0,0,1-2.19,2.77,7.85,7.85,0,0,1-3.52,2,8.61,8.61,0,0,1-4,0,12.68,12.68,0,0,1-3.53-1.27,6.55,6.55,0,0,1-1.71-1.41,5.21,5.21,0,0,1-1.07-2.14,5.79,5.79,0,0,1-.16-1.14v-.68l0-.24c0-.15.06-.3.1-.45a4.84,4.84,0,0,1,1.31-1.95,18.58,18.58,0,0,1,2.78-2.17c.48-.31.95-.6,1.47-.88l.74-.39c.22-.11.42-.23.63-.35a20.66,20.66,0,0,0,4.46-4,26.05,26.05,0,0,1,5-4.56,16.08,16.08,0,0,1,13.54-1.73h0l-1.95,1.1c.79-4.22,1.71-8.41,2.61-12.6s1.93-8.35,2.93-12.51c2-8.33,4.28-16.6,6.54-24.86a103.73,103.73,0,0,0,3.79-24.79,86,86,0,0,0-.39-12.54,52.1,52.1,0,0,0-2.58-12.13l0,0a1.39,1.39,0,0,1,2.58-1Z" class="color332900 svgShape color263745"></path><path fill="#3f4757" d="M366.48,378a20,20,0,0,1-.8,5.63,50.06,50.06,0,0,1-1.56,5.2,18.63,18.63,0,0,1-1.24,2.65,11.68,11.68,0,0,1-1.91,2.46,19.75,19.75,0,0,1-4.54,3.26,1.67,1.67,0,0,1-1.92-2.7l0,0c1.27-1.16,2.57-2.22,3.63-3.32a9.64,9.64,0,0,0,1.32-1.65,15.56,15.56,0,0,0,1-2.09c.58-1.48,1.1-3.17,1.63-4.8a21.39,21.39,0,0,0,1-4.68v0a1.66,1.66,0,0,1,3.32.08Z" class="color332900 svgShape color263745"></path><ellipse cx="344.88" cy="117.47" fill="none" stroke="#000" stroke-miterlimit="10" stroke-width="2.21" class="colorStroke332900 svgStroke colorStroke000" rx="3.83" ry="7.73"></ellipse><ellipse cx="319.78" cy="115.13" fill="none" stroke="#000" stroke-miterlimit="10" stroke-width="2.21" class="colorStroke332900 svgStroke colorStroke000" rx="2.72" ry="7.26"></ellipse><path fill="#3f4757" d="M219.6,134.4c12.78,5.57,25.37,10.88,37,18.61,1.5,1,6.27,3.37,7,5.05.57,1.33-.85,2.64-2,4.29-3.27,4.69-6.73,9.28-10.12,13.88-8.33,11.32-16.91,22.45-25.14,33.84q-6.63,9.18-12.89,18.62c-1,1.56-2,3.22-3.08,4.72-1.9,2.6-2.14,1.31-4.34-.29l-10.12-7.32c-1.3-1-2.54,1.21-1.25,2.15,3.84,2.78,7.62,5.72,11.55,8.37,1.67,1.12,2.41,2,4.25,1.12.73-.36,1.76-2.32,2.06-2.77,1.36-2.08,2.71-4.18,4.09-6.25q3.44-5.14,7-10.21c9.68-13.81,20-27.14,30-40.72,3.85-5.22,7.94-10.41,11.46-15.86,2.63-4.07,1.13-4.83-2.63-7.61-12.79-9.44-27.13-15.46-41.62-21.77-1.46-.63-2.73,1.51-1.26,2.15Z" class="color332900 svgShape color263745"></path><path fill="#3f4757" d="M219.08,132.88c-11.08,14.78-22.46,29.48-30.89,46-4.1,8-7.87,16.3-11.59,24.51-1.2,2.64-3.45,5.62-1.39,8.32s5.54,4.78,8.23,6.54c1.34.88,2.59-1.27,1.26-2.15a27,27,0,0,1-5.55-4.24c-2.3-2.62-1.68-4.4-.4-7.22q2.19-4.83,4.48-9.62c3.13-6.57,6-13.32,9.78-19.56s7.35-12.84,11.56-18.94c5.28-7.64,11.09-15,16.66-22.38,1-1.28-1.2-2.53-2.15-1.26Z" class="color332900 svgShape color263745"></path><path fill="#3f4757" d="M178.88,202.63A312.86,312.86,0,0,1,191,158.21c2.21-6.1,4.82-12.06,7.61-17.91.64-1.33.91-2.69,2.31-3s3,1.12,4.14,1.74c2.45,1.36,4.82,2.86,7.32,4.12,1,.49,1.79-.95.83-1.43-2.84-1.43-5.52-3.17-8.33-4.69-1.18-.63-3.62-2.44-5.13-1.81-1.91.79-3,5.15-3.8,6.83-1.43,3.12-2.82,6.26-4.14,9.43-6.71,16.08-11.05,33.62-14.5,50.66-.21,1,1.39,1.49,1.6.44Z" class="color332900 svgShape color263745"></path><path fill="none" stroke="#000" stroke-linecap="round" stroke-miterlimit="10" stroke-width="2.21" d="M216.43,146.25h8a2.91,2.91,0,0,1,2.91,2.91v2.06a2.91,2.91,0,0,1-2.91,2.91h-7.35a2.91,2.91,0,0,1-2.91-2.91v-2.7A2.27,2.27,0,0,1,216.43,146.25Z" class="colorStroke332900 svgStroke colorStroke000" transform="rotate(-54.99 220.776 150.19)"></path><line x1="212.91" x2="202.46" y1="156.76" y2="169.9" fill="none" stroke="#000" stroke-linecap="round" stroke-miterlimit="10" stroke-width="2.21" class="colorStroke332900 svgStroke colorStroke000"></line><line x1="215.84" x2="208.52" y1="159.09" y2="168.29" fill="none" stroke="#000" stroke-linecap="round" stroke-miterlimit="10" stroke-width="2.21" class="colorStroke332900 svgStroke colorStroke000"></line><path fill="none" stroke="#000" stroke-linecap="round" stroke-miterlimit="10" stroke-width="2.21" d="M381.17,292.09v13.72a.91.91,0,0,1-.41.76l-12.22,8.14a.9.9,0,0,1-1.41-.75V300.23a.88.88,0,0,1,.41-.75l12.22-8.15A.91.91,0,0,1,381.17,292.09Z" class="colorStroke332900 svgStroke colorStroke000"></path><path fill="#3f4757" d="M267.46 310.31a108.25 108.25 0 0011.5 5.08 88.11 88.11 0 0111.79 5.41 7.11 7.11 0 011.54 1.23 7 7 0 01.65.83 4.13 4.13 0 01.5 1.13c.19.79.2 1.17.31 1.69s.19 1.07.27 1.6c.34 2.14.58 4.28.78 6.42.39 4.29.57 8.57.62 12.85l0 25.49c0 8.5-.14 17-.46 25.54a2.22 2.22 0 01-4.43-.17v0c.49-8.44.76-16.91 1-25.38l.54-25.44c0-4.2 0-8.41-.34-12.59-.15-2.09-.35-4.18-.63-6.24l-.45-3a1.08 1.08 0 00-.13-.32 3.88 3.88 0 00-.33-.44 4.41 4.41 0 00-.93-.76A85.9 85.9 0 00278 317.83a111.63 111.63 0 01-11.67-5.44 1.2 1.2 0 011.16-2.09zM231.86 297.19c-8.57-4.41-17.05-9-26.08-11.86h0a1.38 1.38 0 01.83-2.64h0c13.15 4 27 5 40.84 6.07s27.68 2 41.48 1.75c3.45-.06 6.9-.22 10.33-.44 1.69-.13 3.54-.24 5.25-.31s3.41-.18 5.05-.38a21.69 21.69 0 004.69-1.05 7.71 7.71 0 003.49-2.31c1.67-1.92 1.43-5.34.56-8.41a31.55 31.55 0 00-1.74-4.64c-.69-1.54-1.47-3-2.29-4.52a96 96 0 00-5.5-8.64c-4-5.6-8.42-11-12.6-16.56a1 1 0 01.19-1.34 1 1 0 011.31.15c4.51 5.25 9.21 10.4 13.46 16s8.16 11.57 10.45 18.59a19.29 19.29 0 01.88 5.64 10.19 10.19 0 01-.44 3.05 7.69 7.69 0 01-1.5 2.89 11.36 11.36 0 01-5 3.43 24.89 24.89 0 01-5.47 1.24c-1.81.23-3.59.33-5.34.41s-3.38.18-5.17.3c-3.49.24-7 .4-10.5.46-14 .3-28-.72-41.82-1.93s-27.93-2.49-41.4-6.82l.85-2.63h0c9.29 3.22 17.75 8.05 26.18 12.64a1 1 0 01-1 1.85z" class="color332900 svgShape color263745"></path><path fill="#3f4757" d="M279.46 292.78a19.43 19.43 0 00-1.44 6.45 20.74 20.74 0 00.8 6.58 31.32 31.32 0 006.65 11.67l-1.94.64v0a1.05 1.05 0 011.72-.81l.23.2.87.72a1.34 1.34 0 01-1.72 2.06 1.48 1.48 0 01-.32-.39l-.54-1 2-.61v0a1.11 1.11 0 01-1.94.63 33.57 33.57 0 01-7.11-12.52 22.65 22.65 0 01-.88-7.29 21.64 21.64 0 011.6-7.18 1.1 1.1 0 011.44-.61 1.11 1.11 0 01.61 1.44zM315.64 265.62a236 236 0 0131.69-.2c5.23.31 10.46.4 15.76.68a95.79 95.79 0 0115.9 1.95 1.66 1.66 0 01-.72 3.25h0c-10-2.42-20.56-2.29-31.09-3.12a234.31 234.31 0 00-31.35-.34 1.11 1.11 0 01-.16-2.21zM303.12 318.36a496.07 496.07 0 0048.13-26.15 1.3 1.3 0 011.38 2.21 497 497 0 01-48.07 26.93 1.66 1.66 0 01-2.22-.76 1.65 1.65 0 01.76-2.22zM368.9 285.33c3-1.51 6-3 9-4.6s5.84-3.28 8.65-5.11a.77.77 0 01.88 1.27c-2.74 2-5.58 3.89-8.48 5.66s-5.85 3.44-8.78 5.11a1.32 1.32 0 11-1.31-2.3zM317 423.55c13.79-9.42 27.78-18.54 41.57-28 1.75-1.2.09-4.08-1.68-2.87-13.78 9.42-27.78 18.54-41.56 28-1.76 1.2-.1 4.08 1.67 2.87zM286 236.51c-15.52 6.46-31.06 12.88-46.34 19.9-7.79 3.58-15.51 7.31-23.12 11.27-5.86 3.05-14.4 6-18.51 11.37s-2.83 15.41-3.08 21.91q-.51 13.47-.47 27c0 17.53.74 35 1.93 52.52.22 3.18 5.2 3.2 5 0-1.08-15.9-1.77-31.82-1.91-47.76q-.11-12 .21-24 .17-6.3.45-12.61c.16-3.63-.54-10.11 1.38-13.39 1.79-3.07 6.41-4.73 9.36-6.36q5.28-2.89 10.64-5.64 10.2-5.23 20.65-10c14.89-6.84 30-13.1 45.16-19.4 2.91-1.21 1.63-6-1.33-4.8z" class="color332900 svgShape color263745"></path><path fill="#3f4757" d="M387.14,327.33c.26-13.27-.36-26.64-.95-40l-.25-5a15.8,15.8,0,0,0-.49-4.24,3.61,3.61,0,0,0-.33-.69,4.72,4.72,0,0,0-.5-.7,6,6,0,0,0-.61-.63l-.33-.27-.18-.13-.25-.17-2-1.35-2.07-1.28a122,122,0,0,0-17.8-8.4c-6.19-2.46-12.52-4.95-18.66-7.7s-12.32-5.07-18.54-7.65-12.19-5.28-18.49-7a91.47,91.47,0,0,0-9.5-2,13.18,13.18,0,0,0-4.25,0,30.2,30.2,0,0,0-4.48,1.19h0a2.49,2.49,0,0,1-1.54-4.74,34.81,34.81,0,0,1,5.22-1.41,18.27,18.27,0,0,1,5.76,0c1.79.25,3.43.57,5.13.91s3.36.74,5,1.18a91.63,91.63,0,0,1,9.82,3.22c3.19,1.26,6.27,2.64,9.32,3.91,6.15,2.57,12.4,5,18.61,7.75s12.24,5.17,18.49,7.68a127.94,127.94,0,0,1,18.5,8.8l2.2,1.38,2.15,1.44.27.18.33.25c.22.16.43.34.64.51a12.71,12.71,0,0,1,1.14,1.18,10.88,10.88,0,0,1,.95,1.35,9.15,9.15,0,0,1,.74,1.58,18.9,18.9,0,0,1,.74,5.69l.17,5c.21,6.72.4,13.44.38,20.17s-.16,13.47-.68,20.23a1.82,1.82,0,0,1-3.63-.17Z" class="color332900 svgShape color263745"></path><line x1="362.45" x2="345.61" y1="302.55" y2="311.91" fill="none" stroke="#000" stroke-linecap="round" stroke-miterlimit="10" stroke-width="2.21" class="colorStroke332900 svgStroke colorStroke000"></line><line x1="362.45" x2="353.93" y1="311.91" y2="317.06" fill="none" stroke="#000" stroke-linecap="round" stroke-miterlimit="10" stroke-width="2.21" class="colorStroke332900 svgStroke colorStroke000"></line><g class="color000 svgShape" data-name="MY SITE" fill="#3f4757"><path fill="#3f4757" d="M240.2 337.71l0-11.29-3.11 7.83-1.1-.51-3.08-10.49v11l-2.29-1.08V314.43l2 .94 3.95 13.52 3.9-9.86 2 .94 0 18.82zM250.1 335.69v6.67l-2.46-1.15v-6.73l-4.1-14 2.6 1.21 2.84 9.69 2.83-7.05 2.42 1.13zM222.4 342.72L219 359.81l-2.6-1.24-2.3-13.75-2.37 11.52-2.58-1.23-3.43-20.29 2.5 1.18 2.36 14.25 2.46-12 2.24 1.06 2.39 14.39 2.44-12.11zM231.89 362.49V366l-8.14-3.89V343.36l7.95 3.76v3.48L226.16 348v4.07l4.89 2.32v3.38l-4.89-2.32v4.33zM243.52 366.39c0 3.25-1.45 4.44-4.23 3.12l-5.46-2.61V348.13l5.16 2.44a7.2 7.2 0 014 6.78c0 1.88-.55 3.07-1.41 3.47A8 8 0 01243.52 366.39zm-7.26-13.84V357l2.43 1.15c1.19.57 1.84.12 1.84-1.35a3.16 3.16 0 00-1.84-3.08zm4.8 12.21a3.31 3.31 0 00-1.95-3.26l-2.85-1.36v4.65l2.85 1.35C240.38 366.75 241.06 366.37 241.06 364.76zM244.55 370.16l.84-2.88a9 9 0 003.5 3.63c1.45.69 2 .11 2-1.05 0-3.53-6.16-4-6.16-11 0-3.2 1.45-5.18 4.46-3.75a9.15 9.15 0 013.69 3.41l-.76 2.95a8 8 0 00-2.94-2.87c-1.45-.69-2 0-2 1.2 0 3.47 6.18 4 6.18 10.92 0 3.15-1.48 5.14-4.51 3.69A10.47 10.47 0 01244.55 370.16zM255.06 358.17l2.47 1.16V378.2L255.06 377zM262.26 365.13l-3.41-1.61V360l9.31 4.4v3.56l-3.43-1.62v15.33l-2.47-1.17zM277.79 384.34v3.52l-8.3-4V365l8.1 3.83v3.52L272 369.67v4.11l5 2.36v3.41l-5-2.37v4.38z" class="color332900 svgShape color263745"></path></g><path fill="#3f4757" d="M211.93 202.2l1.73 1.13-4.75 7.21-9.3-6.13 4.63-7 1.73 1.14-3.22 4.89 2 1.33 2.84-4.32 1.68 1.1-2.85 4.32 2.16 1.42zM220.36 193.15l-5.59-3.66 2.8 5.77-.64 1-6.27-.23 5.46 3.6-1.33 2-9.31-6.13 1.18-1.78 8.07.33-3.52-7.24 1.16-1.77 9.32 6.1zM225.19 181.49l-2.85 4.31 1.45 2.14-1.45 2.21-6.57-10.28 1.4-2.12 12 2L227.72 182zm-2.08-.4l-4.54-.87 2.59 3.82zM220.55 172.62l1.41-2.16 9.31 6.13-1.42 2.15zM223.42 168.26l1.42-2.16 7.54 5 3.08-4.67 1.75 1.16-4.49 6.81z" class="color332900 svgShape color263745"></path><g class="color000 svgShape" data-name="WPX tshirt" fill="#3f4757"><path fill="#13aa52" d="M381 223.8l1.06.3c.62.18 1.13-.27 1.15-1a1.7 1.7 0 00-1.09-1.64l-1.06-.3c-.62-.17-1.13.27-1.15 1A1.71 1.71 0 00381 223.8zM386.81 228.53l-1.06-.31c-.62-.17-1.13.27-1.15 1a1.71 1.71 0 001.09 1.63l1.06.3c.62.18 1.13-.27 1.15-1A1.69 1.69 0 00386.81 228.53zM384.66 238.49l-1.06-.3c-.62-.18-1.13.27-1.15 1a1.71 1.71 0 001.09 1.64l1.06.3c.62.17 1.13-.27 1.15-1A1.69 1.69 0 00384.66 238.49zM378.55 231.38c-.62-.18-1.13.27-1.15 1a1.69 1.69 0 001.09 1.63l1.06.31c.62.17 1.13-.27 1.15-1a1.69 1.69 0 00-1.09-1.63zM353 213.37l-5.31-1.52c-1.09-.31-2 .46-2 1.74l-.38 16.47a3 3 0 001.91 2.86c1.09.31 2-.46 2-1.74l.1-4.15 3 .85c4 1.13 7.25-.46 7.36-5.29v-.06A9 9 0 00353 213.37zm2.68 8.18c0 1.79-1.21 2.83-3.17 2.28L350 223.1c-.22 1-.54 2.4-.63 2.73l.09-4h0l.12-5.33 3 .86a4 4 0 013.1 4.07zM340.81 209.71a1.5 1.5 0 00-1.92 1.11l-3.52 10.87c0 1 0 2.28 0 2.6l-.33-1.68h0l-3.27-13.69a3 3 0 00-1.94-2.39l-.31-.09a1.59 1.59 0 00-2 1.26L324 218.38c0 1.08 0 2.58 0 2.93l-.49-2.5-3.12-13.25a2.91 2.91 0 00-1.86-2.19 1.58 1.58 0 00-2.06 1.67 3.7 3.7 0 00.13.91l4.61 17.83a3.23 3.23 0 002 2.46l.4.11c.94.27 1.67-.21 2.05-1.31l3.4-9.86-.21-3.54c.09.33.42 1.69.67 2.76L332.72 227a3.13 3.13 0 002 2.46l.41.11c.94.27 1.69-.24 2.07-1.3l5.35-15a3 3 0 00.18-.85A2.86 2.86 0 00340.81 209.71z" class="colorfff svgShape color06d6a0"></path><path fill="#13aa52" d="M383 227.44l-8.13-2.32 1.28-1.43a2.62 2.62 0 00.46-.76l-1.34-.76 1.45.42L378 223c.62.18 1.14-.27 1.15-1a1.7 1.7 0 00-1.09-1.64l-3.1-.88-.19 0h0a1.69 1.69 0 00-1.61.78l-4 4.86-3.75-7.19a2.84 2.84 0 00-1.77-1.65c-1.12-.32-2 .43-2 1.72a3.92 3.92 0 00.55 1.87l4.37 7.76-4.95 5.55a2.38 2.38 0 00-.63 1.59 2.71 2.71 0 001.73 2.63 1.67 1.67 0 001.94-.71l3.86-4.65c-.36-1.08-.86-2.59-1-2.94l1.33 2.51 0 0 4 7.6a2.85 2.85 0 001.78 1.65 1.49 1.49 0 002-1.39c-.79-.43-1.65-.91-1.88-1l1.9.54 1.45.42 2.79.79c.61.18 1.13-.27 1.14-1a1.7 1.7 0 00-1.08-1.64l-5.58-1.59-1.65-3-.88-.5.71.21 2.33.66c.61.18 1.13-.27 1.14-1a1.7 1.7 0 00-1.08-1.64l-4.15-1.18-.3-.54 1.28-1.43c-.52-.29-1-.54-1.14-.64l1.36.39 2 .57 8 2.27c.62.18 1.13-.27 1.15-1A1.68 1.68 0 00383 227.44zM385.05 223.1l-.34-.1a.1.1 0 01-.06-.09 0 0 0 01.06 0l.81.23a.09.09 0 01.06.09 0 0 0 01-.06 0l-.34-.09 0 1.15c0 .05 0 .07-.06.06a.1.1 0 01-.07-.09zM385.82 223.25c0-.05 0-.07.07-.06h0a.09.09 0 01.06.06l.4.85.44-.61a.06.06 0 01.06 0h0a.1.1 0 01.07.09l0 1.23c0 .05 0 .07-.07.06a.1.1 0 01-.06-.09l0-1-.39.53a.05.05 0 01-.05 0s0 0-.06-.06l-.36-.75 0 1c0 .05 0 .07-.06.06a.1.1 0 01-.07-.09zM318.42 232.15a.16.16 0 01.2-.17.3.3 0 01.19.28l0 1.6 2 .56 0-1.59c0-.13.1-.21.21-.17a.27.27 0 01.18.28l-.08 3.64a.16.16 0 01-.2.17.3.3 0 01-.19-.29l0-1.61-2-.57 0 1.62c0 .13-.1.21-.21.17a.3.3 0 01-.18-.28zM328.4 236.84h0c0-1.12.76-1.89 1.8-1.59a2.6 2.6 0 011.7 2.58h0c0 1.11-.76 1.88-1.8 1.59A2.63 2.63 0 01328.4 236.84zm3.11.89v0a2.07 2.07 0 00-1.32-2.05c-.78-.22-1.36.36-1.38 1.27h0a2.09 2.09 0 001.32 2.06C330.91 239.22 331.49 238.64 331.51 237.73zM339.32 241.49a.32.32 0 01-.07-.2c0-.12.09-.2.2-.17a.17.17 0 01.11.09 2 2 0 001.08.78c.46.14.77-.06.78-.46h0c0-.38-.16-.64-.88-1s-1.14-.83-1.13-1.49h0a.82.82 0 011.16-.78 2.15 2.15 0 011.09.71.31.31 0 01.08.21c0 .12-.09.19-.2.16a.23.23 0 01-.11-.07 1.77 1.77 0 00-.88-.61c-.45-.12-.74.08-.75.45h0c0 .38.17.64.92 1.05s1.11.84 1.09 1.46h0c0 .7-.51 1-1.2.81A2.57 2.57 0 01339.32 241.49zM350.8 241.61l-1-.29a.27.27 0 01-.18-.26c0-.12.09-.19.19-.16l2.39.68a.28.28 0 01.18.26c0 .12-.09.19-.19.16l-1-.28-.08 3.41c0 .13-.09.21-.2.18a.31.31 0 01-.19-.29zM361.21 244.35c0-.13.09-.2.19-.17a.29.29 0 01.2.28l-.09 3.64a.16.16 0 01-.2.17.31.31 0 01-.19-.28zM370.35 247c0-.12.09-.2.19-.17l.06 0c.09 0 .14.09.19.19l2 3.72.07-3.05c0-.12.09-.2.19-.17a.3.3 0 01.19.28l-.09 3.65c0 .12-.08.19-.18.16h0a.36.36 0 01-.2-.19l-2.06-3.81-.07 3.13c0 .12-.09.2-.19.17a.3.3 0 01-.19-.28zM380.59 251.72h0c0-1.11.75-1.89 1.78-1.6a2.27 2.27 0 011.16.77.33.33 0 01.08.21c0 .12-.1.2-.2.17s-.08 0-.12-.09a1.81 1.81 0 00-1-.64c-.76-.22-1.32.38-1.34 1.28h0a2 2 0 001.32 2.07 1.23 1.23 0 001-.12l0-1-.93-.27a.27.27 0 01-.17-.25c0-.11.09-.18.18-.16l1.11.32a.29.29 0 01.18.28l0 1.23a.27.27 0 01-.14.24 1.59 1.59 0 01-1.26.13A2.55 2.55 0 01380.59 251.72z" class="colorfff svgShape color06d6a0"></path></g></g></g></g></g></svg></svg></g></svg>